<svg xmlns="http://www.w3.org/2000/svg" width="36" height="36" viewBox="0 0 36 36">
    <g fill="none" fill-rule="evenodd">
        <g>
            <g>
                <g>
                    <path fill="#1664FF" d="M17 24.846c-.363 0-.654.294-.654.654v1.308c0 .36.291.654.654.654.363 0 .654-.294.654-.654V25.5c0-.36-.291-.654-.654-.654zm3.27-.13c-.364 0-.655.294-.655.654v1.308c0 .36.291.653.654.653.363 0 .654-.293.654-.653V25.37c0-.36-.29-.654-.654-.654zm3.268-.46c-.362 0-.653.294-.653.654v1.308c0 .362.29.654.653.654.363 0 .654-.292.654-.654V24.91c0-.36-.29-.654-.654-.654zm3.27-.718c-.363 0-.654.294-.654.654V25.5c0 .36.29.654.654.654.363 0 .654-.294.654-.654v-1.308c0-.36-.291-.654-.654-.654zm-25.5-6.99C3.849 19.143 9.844 20.923 17 20.923c7.156 0 13.15-1.78 15.692-4.375v3.721c0 1.131-1 2.302-2.822 3.292-.317.174-.434.57-.263.887.12.22.345.342.575.342.107 0 .214-.026.314-.08.906-.492 1.637-1.034 2.196-1.608v3.706c0 2.843-6.303 5.884-15.692 5.884-9.386 0-15.692-3.041-15.692-5.884V23.07c2.102 2.16 6.59 3.782 12.328 4.255l.054.003c.34 0 .623-.261.654-.603.028-.358-.24-.674-.6-.705-7.09-.582-12.436-3.055-12.436-5.752v-3.72zm0-6.538C3.849 12.604 9.844 14.385 17 14.385c7.156 0 13.15-1.78 15.692-4.375v3.72c0 2.844-6.306 5.885-15.692 5.885S1.308 16.574 1.308 13.731V10.01zm21.426-6.96c-.357-.06-.692.183-.748.54-.06.359.183.693.541.752.72.115 1.405.253 2.04.411.054.016.108.02.159.02.294 0 .56-.196.633-.492.09-.35-.122-.708-.472-.795-.672-.168-1.394-.316-2.153-.436zM17 2.615c-2.891 0-5.617.302-7.887.871-.35.087-.562.445-.472.795.073.296.339.493.633.493.051 0 .105-.005.158-.02 2.135-.535 4.822-.83 7.568-.83.868 0 1.734.027 2.575.083.357.036.671-.245.694-.605.026-.363-.248-.674-.608-.697-.868-.059-1.765-.09-2.661-.09zm0-1.307c9.386 0 15.692 3.041 15.692 5.884 0 2.843-6.306 5.885-15.692 5.885S1.308 10.035 1.308 7.192 7.614 1.308 17 1.308zM17 0C7.468 0 0 3.16 0 7.192v19.616C0 30.84 7.468 34 17 34s17-3.16 17-7.192V7.192C34 3.16 26.532 0 17 0z" transform="translate(-201 -3133) translate(-2 2814) translate(204 320)"/>
                    <path stroke="#1664FF" stroke-width=".3" d="M17 24.846c-.363 0-.654.294-.654.654v1.308c0 .36.291.654.654.654.363 0 .654-.294.654-.654V25.5c0-.36-.291-.654-.654-.654zm3.27-.13c-.364 0-.655.294-.655.654v1.308c0 .36.291.653.654.653.363 0 .654-.293.654-.653V25.37c0-.36-.29-.654-.654-.654zm3.268-.46c-.362 0-.653.294-.653.654v1.308c0 .362.29.654.653.654.363 0 .654-.292.654-.654V24.91c0-.36-.29-.654-.654-.654zm3.27-.718c-.363 0-.654.294-.654.654V25.5c0 .36.29.654.654.654.363 0 .654-.294.654-.654v-1.308c0-.36-.291-.654-.654-.654zm-25.5-6.99C3.849 19.143 9.844 20.923 17 20.923c7.156 0 13.15-1.78 15.692-4.375v3.721c0 1.131-1 2.302-2.822 3.292-.317.174-.434.57-.263.887.12.22.345.342.575.342.107 0 .214-.026.314-.08.906-.492 1.637-1.034 2.196-1.608v3.706c0 2.843-6.303 5.884-15.692 5.884-9.386 0-15.692-3.041-15.692-5.884V23.07c2.102 2.16 6.59 3.782 12.328 4.255l.054.003c.34 0 .623-.261.654-.603.028-.358-.24-.674-.6-.705-7.09-.582-12.436-3.055-12.436-5.752v-3.72zm0-6.538C3.849 12.604 9.844 14.385 17 14.385c7.156 0 13.15-1.78 15.692-4.375v3.72c0 2.844-6.306 5.885-15.692 5.885S1.308 16.574 1.308 13.731V10.01zm21.426-6.96c-.357-.06-.692.183-.748.54-.06.359.183.693.541.752.72.115 1.405.253 2.04.411.054.016.108.02.159.02.294 0 .56-.196.633-.492.09-.35-.122-.708-.472-.795-.672-.168-1.394-.316-2.153-.436zM17 2.615c-2.891 0-5.617.302-7.887.871-.35.087-.562.445-.472.795.073.296.339.493.633.493.051 0 .105-.005.158-.02 2.135-.535 4.822-.83 7.568-.83.868 0 1.734.027 2.575.083.357.036.671-.245.694-.605.026-.363-.248-.674-.608-.697-.868-.059-1.765-.09-2.661-.09zm0-1.307c9.386 0 15.692 3.041 15.692 5.884 0 2.843-6.306 5.885-15.692 5.885S1.308 10.035 1.308 7.192 7.614 1.308 17 1.308zM17 0C7.468 0 0 3.16 0 7.192v19.616C0 30.84 7.468 34 17 34s17-3.16 17-7.192V7.192C34 3.16 26.532 0 17 0z" transform="translate(-201 -3133) translate(-2 2814) translate(204 320)"/>
                </g>
            </g>
        </g>
    </g>
</svg>
