<svg xmlns="http://www.w3.org/2000/svg" width="34" height="34" viewBox="0 0 34 34">
    <g fill="none" fill-rule="evenodd">
        <g fill="#1664FF" fill-rule="nonzero">
            <g>
                <g>
                    <path d="M24.179 18.328c.73 0 1.321-.594 1.321-1.328V9.695c0-.733-.592-1.328-1.321-1.328-.73 0-1.321.595-1.321 1.328v5.977H2.642V1.328C2.642.595 2.051 0 1.322 0 .591 0 0 .595 0 1.328v31.344C0 33.405.592 34 1.321 34H24.18c.73 0 1.321-.595 1.321-1.328 0-.734-.592-1.328-1.321-1.328H2.642V18.328H24.18z" transform="translate(-1030 -3137) translate(-2 2814) translate(1032 323)"/>
                    <path d="M32.679 0H9.82C9.091 0 8.5.595 8.5 1.328v8.367c0 .734.592 1.328 1.321 1.328.73 0 1.321-.594 1.321-1.328V2.656h20.216v20.32H12.926c-.73 0-1.321.595-1.321 1.329 0 .733.591 1.328 1.321 1.328h18.432v7.039c0 .733.591 1.328 1.32 1.328.73 0 1.322-.595 1.322-1.328V1.328C34 .595 33.408 0 32.679 0z" transform="translate(-1030 -3137) translate(-2 2814) translate(1032 323)"/>
                </g>
            </g>
        </g>
    </g>
</svg>
