<svg xmlns="http://www.w3.org/2000/svg" xmlns:xlink="http://www.w3.org/1999/xlink" width="385" height="389" viewBox="0 0 385 389">
    <defs>
        <path id="3b2glwg5ea" d="M0.133 0.552L1.633 0.552 1.633 1.518 0.133 1.518z"/>
        <path id="oln1r3oq4c" d="M0.034 0.022L2.94 0.022 2.94 5 0.034 5z"/>
        <path id="byqo2euq9e" d="M0.417 0.141L1.183 0.141 1.183 1.474 0.417 1.474z"/>
        <path id="pyfrz1fxng" d="M0.109 0.113L0.887 0.113 0.887 1.447 0.109 1.447z"/>
    </defs>
    <g fill="none" fill-rule="evenodd">
        <g>
            <g>
                <path fill="#00AB96" d="M140.758 107.022c.045.141.05.17.049.28-.037.21-.194.265-.463.166.139-.149.275-.298.414-.446M137.796 113.768c-.955-1.014-1.136-2.037-.34-1.952.923.093 2.52 1.637 2.499 2.637-.133.745-1.293.233-2.16-.685M138.113 121.839c-.961-1.027-1.136-2.037-.33-1.969.92.076 2.512 1.613 2.489 2.631-.143.753-1.294.251-2.159-.662M137.054 129.59c-.966-1.031-1.136-2.048-.329-1.982.947.078 2.518 1.584 2.486 2.621-.145.762-1.299.272-2.157-.64M136.578 136.53c-.97-1.376-1.139-2.732-.326-2.637.959.11 2.523 2.111 2.481 3.491-.155 1.018-1.287.375-2.155-.855M135.516 144.265c-.969-1.375-1.137-2.728-.325-2.634.879.099 2.534 2.022 2.48 3.498-.155 1.009-1.287.363-2.155-.864M134.4 151.438c-1.287-1.718-1.52-3.39-.457-3.255 1.282.157 3.379 2.682 3.328 4.393-.212 1.24-1.715.406-2.87-1.138M134.741 159.459c-1.31-1.749-1.55-3.372-.477-3.217 1.17.166 3.381 2.604 3.324 4.403-.184 1.119-1.41.505-2.482-.732-.115-.134-.261-.314-.365-.454M133.476 164.935c-1.31-1.75-1.557-3.353-.501-3.179 1.171.194 3.392 2.656 3.34 4.431-.17 1-1.195.512-2.075-.363-.265-.262-.523-.562-.764-.89M133.598 173.212c-.998-1.778-1.191-3.329-.397-3.13.9.225 2.547 2.659 2.508 4.443-.156 1.264-1.262-.07-1.39-.225-.11-.139-.405-.524-.721-1.088M133.225 214.324c-1.038-4.249-.817-4.497-.743-4.579.503-.028 1.832 4.337 1.929 7.396 0 .395-.018.52-.08.604-.12-.045-.297-.114-1.106-3.42" transform="translate(192 -41) rotate(-148 81.404 209.316)"/>
                <path fill="#00AB96" d="M134.794 222.255c-.68-3.014-1.09-4.834-.911-5.06.525.318 1.745 4.861 1.95 8.363.015.428.01.56-.03.637-.15-.133-.248-.568-1.009-3.94M134.877 228.733c-.127-1.238-.282-2.588-.359-3.24-.17-1.475-.23-2.011-.23-2.279.104.139.671 3.488.97 9.376.012.207.022.416.03.624-.038-.166-.035-.335-.05-.506-.077-1-.183-2.251-.36-3.975M129.043 120.168c.062.177.06.246.066.367-.037.31-.212.394-.601.292.174-.221.35-.44.535-.66M126.58 127.334c-1.317-1.364-1.615-2.703-.584-2.61 1.217.114 3.34 2.121 3.38 3.497-.137 1.092-1.746.201-2.797-.887M125.531 135.054c-1.315-1.359-1.63-2.691-.612-2.592 1.208.122 3.337 2.14 3.397 3.516-.124 1.068-1.734.166-2.785-.924M125.625 142.812c-1.35-1.754-1.68-3.375-.658-3.212 1.198.194 3.326 2.73 3.401 4.409-.105 1.314-1.695.169-2.743-1.197M125.431 149.985c-1.35-1.754-1.703-3.357-.698-3.174 1.087.193 3.324 2.654 3.423 4.424-.087 1.2-1.425.259-2.349-.795-.116-.132-.266-.316-.376-.455M125.252 157.154c-1.373-1.787-1.741-3.339-.744-3.13 1.076.223 3.32 2.703 3.435 4.445-.064 1.137-1.304.242-2.118-.636-.173-.186-.409-.465-.573-.68M126.76 163.26c-1.373-1.782-1.77-3.31-.795-3.085 1.07.247 3.32 2.747 3.461 4.467-.05 1.23-1.518-.127-1.69-.287-.145-.141-.54-.533-.976-1.096M127.12 171.27c-1.328-1.716-1.782-3.144-.976-3.058 1.002.11 3.426 2.724 3.6 4.51-.027.925-.902.303-1.276-.006-.405-.338-.911-.879-1.349-1.445M130.902 203.915c-1.057-2.808-1.483-4.325-1.269-4.505.578.054 2.521 4.47 2.925 7.43.037.38.027.5-.037.57-.086-.006-.314-.024-1.619-3.495M131.93 210.986c-1.167-3.46-1.505-4.617-1.443-4.962l.071-.012c.645.597 2.341 5.069 2.878 8.415.046.355.052.43.036.57-.019.003-.039.01-.054.015-.17-.215-.42-.858-1.488-4.026M132.738 217.565c-1.617-4.764-1.617-4.764-1.623-4.875.423.293 2.037 4.4 2.91 8.472.07.331.079.407.09.528-.07-.091-.07-.094-.355-.99-.186-.586-.57-1.796-1.022-3.135M132.198 217.953c.01.014.832 1.927 2 6l-1.98-5.946c-.007-.016-.014-.037-.02-.054M117.788 134.178c.09.216.103.318.12.46-.006.28-.09.539-.674.35l.554-.81M117.305 140.8c-.757-.935-1.082-1.64-1.205-1.907.226-.403.456-.807.69-1.213 1.286.626 3.123 2.887 3.31 4.429.002 1.23-1.398.249-2.393-.84-.124-.136-.283-.323-.402-.469M117.288 148.016c-1.316-1.68-1.808-3.172-1.026-3.127 1.044.056 3.386 2.745 3.626 4.478.019 1.122-1.2.212-2.02-.672-.143-.153-.383-.428-.58-.68M117.96 154.652c-1.326-1.682-1.842-3.153-1.088-3.084 1.029.094 3.384 2.803 3.65 4.506.048 1.207-1.416-.167-1.584-.329-.147-.14-.538-.532-.979-1.093M118.64 161.283c-1.353-1.716-1.887-3.134-1.147-3.034 1.007.135 3.366 2.866 3.663 4.527.058.908-.797.271-1.169-.047-.405-.347-.898-.875-1.348-1.446M120.433 167.898c-1.373-2.083-1.928-3.72-1.213-3.573.894.18 3.322 3.361 3.682 5.458.046.638-.222.704-.797.194-.445-.394-1.088-1.192-1.672-2.08M121.122 174.517c-1.4-2.122-1.978-3.694-1.29-3.508.892.242 3.291 3.4 3.699 5.48.02.208.089.844-.6.273-.453-.373-1.127-1.21-1.81-2.245M127.678 199.413c-1.496-3.337-1.985-4.574-1.934-4.902.557-.017 3.109 5.289 3.92 8.457.078.36.086.422.07.541-.017.002-.043.002-.065.002-.181-.205-.442-.639-1.991-4.098M127.929 205.145c-2.075-4.613-2.075-4.613-2.083-4.804.39.099 2.693 4.694 3.875 8.499.097.326.115.394.125.5-.054-.06-.054-.06-1.917-4.195" transform="translate(192 -41) rotate(-148 81.404 209.316)"/>
                <path fill="#00AB96" d="M129.576 207c-.37-.995-.439-1.176-.474-1.306.008.013 1.04 2.116 3 9-.74-2.273-1.653-5.331-2.48-7.571-.015-.037-.031-.086-.046-.123M110.38 146.954c.124.242.158.369.2.53.023.208.075.642-.659.337.148-.286.303-.576.46-.867M108.618 151.526c-.535-.613-.89-1.109-.893-1.113.23-.527.47-1.064.721-1.604 1.545 1.284 2.949 3.193 3.265 4.443.142 1.02-.798.412-1.37-.04-.503-.399-1.147-1.028-1.723-1.686M110.549 158.73c-1.626-1.94-2.42-3.548-1.774-3.583.934-.053 4.144 3.22 4.754 5.463.107.64-.196.707-.894.2-.55-.397-1.33-1.174-2.086-2.08M112.1 164.82c-1.451-1.741-2.54-3.535-1.858-3.526.896.014 4.095 3.33 4.758 5.5.043.208.172.84-.664.264-.54-.371-1.378-1.21-2.236-2.239M114.77 170.869c-1.464-2.046-2.603-4.087-1.954-4.031.874.075 4.016 3.923 4.766 6.455.05.244.16.751-.324.451-.476-.291-1.428-1.394-2.487-2.875M116.325 176.927c-1.754-2.443-2.581-4.027-2.055-3.939.815.136 3.949 4.034 4.781 6.5.053.205.166.63-.165.456-.473-.251-1.633-1.723-2.56-3.017M118.63 183.203c-1.463-2.904-2.112-4.55-1.743-4.402.619.24 3.071 4.668 3.828 7.462.086.375.091.48.026.529-.086-.024-.353-.1-2.11-3.589" transform="translate(192 -41) rotate(-148 81.404 209.316)"/>
                <path fill="#00AB96" d="M121.9 188.2c-1.648-3.27-1.962-4.077-1.933-4.32.496.005 3.034 4.734 3.907 7.531.082.297.098.365.088.47-.112-.012-.219-.022-2.062-3.68M123.227 193.859c-2.034-4.523-2.034-4.523-2.044-4.755.355.119 2.685 4.83 3.876 8.51.098.317.117.388.124.49-.069-.042-.069-.042-1.956-4.245" transform="translate(192 -41) rotate(-148 81.404 209.316)"/>
                <path fill="#00AB96" d="M125.617 198.91c-.519-1.115-1.102-2.194-1.572-3.34.1.11 1.663 2.836 3.831 8.548.058.152.115.3.169.452-.001-.006-.006-.015-.01-.023l-1.436-3.462-.807-1.796-.175-.379M105.77 156.798c.167.26.227.406.297.573.06.202.204.678-.58.26.09-.273.185-.551.283-.833M105.161 161.171c-.155-.166-.36-.39-.51-.557.12-.53.254-1.075.408-1.63 1.285 1.2 2.932 3.114 3.514 4.484.076.23.231.714-.35.43-.575-.283-1.75-1.33-3.062-2.727M107.306 167.235c-2.11-2.442-3.13-4.027-2.534-3.947.915.13 4.654 4.02 5.74 6.5.073.203.224.63-.156.456-.551-.253-1.937-1.721-3.05-3.01" transform="translate(192 -41) rotate(-148 81.404 209.316)"/>
                <path fill="#00AB96" d="M110.576 172.23c-1.941-2.248-2.882-3.54-2.786-3.842.603-.296 4.629 4.007 5.876 6.535.118.276.134.333.105.441-.22.118-1.294-.934-3.195-3.134M113.285 178.22c-2.457-3.25-2.936-4.07-2.904-4.305.702.015 4.493 4.746 5.852 7.533.137.312.154.37.145.467-.15-.012-.32-.026-3.093-3.695M115.627 182.622c-2.377-3.74-2.57-4.045-2.514-4.201.548.312 3.357 4.378 4.848 7.568.157.358.153.37.137.432-.128-.112-.128-.112-2.47-3.8" transform="translate(192 -41) rotate(-148 81.404 209.316)"/>
                <path fill="#00AB96" d="M119.72 188.89c-.865-1.546-1.865-2.991-2.64-4.61.31.26 2.573 3.832 4.818 8.601.062.131.125.265.182.4-.893-1.385-1.55-2.943-2.36-4.391M104.481 164.542c.202.266.325.463.404.593.13.245.144.286.123.376-.056.03-.115.06-.54-.242-.002-.238.004-.479.013-.727M104.68 167.662l-.066-.07c-.084-.443-.14-.91-.176-1.4 2.386 2.425 3.464 3.985 3.817 4.545.164.288.19.348.181.448-.092.036-.27.1-3.756-3.523M108.323 172.952c-2.38-2.659-2.809-3.138-3.294-3.756-.046-.137-.09-.279-.13-.422 1.527 1.067 5.145 5.117 6.786 7.602.133.216.162.264.213.382l-.078.016c-.31-.26-.31-.26-3.497-3.822M112.246 178.79c-1.204-1.366-2.578-2.594-3.638-4.08.279.023 3.826 3.663 6.752 7.645.083.116.169.235.248.355-1.31-1.156-2.225-2.627-3.362-3.92" transform="translate(192 -41) rotate(-148 81.404 209.316)"/>
                <path fill="#00AB96" d="M112.69 179.237c.952.934 1.75 1.75 1.902 1.904l-2-2 .098.096M105.823 170.724c.185.197.365.396.545.599.186.213.23.265.26.32-.02-.005-.039-.007-.459-.411-.123-.16-.24-.331-.346-.508M106.974 172.039c.361.352 1.03 1.008 2 2l-1.835-1.834c-.057-.054-.112-.11-.165-.166M143.715 70.888L143.881 70.918 144.014 71.146 143.85 71.114zM143.521 78.304c-.166-.188-.197-.372-.064-.373.156.002.49.31.472.528-.03.134-.25.026-.408-.155M141.329 84.392c-.264-.291-.32-.587-.115-.579.269.009.775.499.76.805-.047.221-.385.061-.645-.226M139.86 92.974c-.596-.642-.735-1.272-.272-1.28.599-.002 1.744 1.082 1.724 1.78-.105.477-.878.118-1.452-.5M139.652 100.187c-.6-.646-.739-1.282-.28-1.285.591-.004 1.743 1.077 1.727 1.784-.092.47-.873.115-1.447-.499M138.93 106.588c-.617-.66-.766-1.316-.299-1.326.486-.01 1.389.693 1.726 1.494-.16.168-.318.337-.48.506-.301-.11-.645-.354-.948-.674M133.437 61.984L133.603 62.011 133.73 62.24 133.562 62.213zM132.388 69.935c-.184-.216-.176-.397-.035-.377.162.019.463.314.443.525-.035.136-.256.032-.408-.148M130.718 76.868c-.254-.29-.306-.582-.098-.582.26 0 .772.497.752.805-.058.236-.429.03-.654-.223M129.562 84.075c-.623-.674-.717-1.337-.18-1.283.622.056 1.676 1.09 1.648 1.77-.11.515-.954.069-1.468-.487M127.998 90.974c-.61-.647-.744-1.287-.283-1.295.598-.01 1.744 1.063 1.725 1.769-.092.49-.865.14-1.442-.474M127.79 98.19c-.604-.638-.751-1.28-.296-1.303.584-.022 1.738 1.04 1.733 1.756-.092.543-.925.085-1.437-.453M127.211 106.245c-.902-.944-1.14-1.934-.475-1.96.873-.035 2.611 1.56 2.62 2.635-.114.752-1.268.246-2.145-.675M127.02 113.456c-.977-1.015-1.178-2.026-.397-1.961.895.073 2.5 1.605 2.52 2.628-.113.816-1.354.137-2.123-.667M125.991 121.228c-1.002-1.043-1.221-2.068-.427-1.995.821.073 2.16 1.275 2.518 2.256-.215.248-.421.493-.625.74-.495-.168-.987-.506-1.466-1.001M123.154 53.077L123.321 53.097 123.452 53.338 123.271 53.307zM121.564 60.183c-.177-.215-.162-.398-.021-.386.168.014.472.314.445.532-.044.155-.284.021-.424-.146M120.43 67.974c-.269-.302-.294-.612-.052-.59.28.027.74.487.711.792-.064.244-.439.05-.659-.202M118.42 75.72c-.619-.666-.698-1.34-.159-1.305.634.034 1.682 1.056 1.64 1.756-.13.533-.97.102-1.48-.45M118.23 82.942c-.632-.675-.73-1.35-.189-1.319.62.039 1.676 1.057 1.647 1.753-.107.533-.945.112-1.457-.434M117.186 90.685c-.64-.67-.75-1.352-.222-1.324.61.027 1.667 1.038 1.664 1.737-.096.562-.932.124-1.442-.413M116.946 97.375c-.92-.959-1.163-1.948-.48-1.995.862-.057 2.597 1.516 2.609 2.606-.12.84-1.36.19-2.129-.611M115.898 105.11c-.922-.95-1.174-1.936-.513-1.99.848-.075 2.587 1.504 2.629 2.613-.096.77-1.237.289-2.116-.624M115.076 112.577c-1.228-.95-1.587-1.932-.727-1.985 1.121-.069 3.452 1.504 3.528 2.607-.112.839-1.76.185-2.8-.622M114.626 119.515c-1.236-1.267-1.62-2.572-.771-2.639 1.102-.084 3.447 2.023 3.544 3.493-.088 1.099-1.729.214-2.773-.854M115.835 127c-1.249-1.266-1.667-2.553-.846-2.599 1.08-.06 3.438 2.06 3.576 3.51-.055 1.082-1.654.183-2.73-.911M115.443 133.955c-1.305-1.63-1.77-3.247-.943-3.271.917-.024 2.928 1.961 3.587 3.843l-.664 1.157c-.426-.165-1.205-.763-1.98-1.729M115.04 138.924c-.396-.788-.177-1.17.52-.914l.074.03c-.2.299-.397.595-.59.89-.002-.002-.002-.005-.004-.006M113.73 43.652L113.902 43.665 114.01 43.894 113.841 43.879zM111.812 52.14c-.158-.192-.161-.397-.003-.392.17.007.456.286.417.509-.054.152-.268.06-.414-.116M109.297 59.614c-.266-.293-.283-.614-.035-.602.291.02.734.457.693.772-.07.24-.414.106-.658-.17M107.285 67.39c-.627-.666-.691-1.363-.125-1.35.637.013 1.674 1.015 1.61 1.735-.136.517-.925.214-1.485-.386M105.708 74.286c-.622-.658-.712-1.367-.167-1.357.626.011 1.678 1.018 1.64 1.736-.112.513-.904.219-1.473-.379M105.516 81.498c-.631-.652-.738-1.362-.205-1.361.614.005 1.676.996 1.658 1.718-.105.58-.943.167-1.453-.357M104.1 90.11c-.959-.98-1.148-2.054-.36-2.046.902.003 2.508 1.492 2.51 2.571-.126.876-1.375.262-2.15-.524M103.922 97.324c-.977-.995-1.191-2.047-.412-2.052.886-.003 2.49 1.482 2.527 2.574-.1.87-1.339.261-2.115-.522M103.96 104.267c-1.239-.942-1.604-1.954-.74-2.046 1.11-.118 3.443 1.422 3.528 2.567-.09.808-1.602.377-2.787-.521M103.53 111.201c-1.254-1.256-1.66-2.592-.815-2.696 1.086-.133 3.427 1.934 3.555 3.436-.072 1.15-1.668.333-2.74-.74M103.896 119.22c-1.269-1.26-1.712-2.58-.896-2.661 1.083-.11 3.41 1.945 3.588 3.47-.023 1.117-1.608.268-2.692-.808M104.57 125.853c-1.271-1.267-1.75-2.565-.968-2.618 1.022-.075 3.394 2.042 3.62 3.501.014 1.088-1.56.205-2.652-.883M105.524 133.054c-1.3-1.618-1.806-3.182-1.04-3.219.991-.046 3.37 2.626 3.638 4.414.05 1.27-1.367.255-2.41-.968l-.188-.227M107.047 139.14c-1.301-1.625-1.843-3.158-1.113-3.157.99.002 3.35 2.668 3.669 4.456.078 1.148-1.132.255-1.966-.623-.175-.185-.423-.469-.59-.677M108.338 146.674c-1.395-1.697-1.989-3.205-1.24-3.164.841.047 2.85 2.06 3.674 3.976-.155.344-.306.686-.452 1.023-.486-.243-1.265-.963-1.982-1.835M108.648 150.785c-1.055-1.683-1.286-2.755-.569-2.667.132.017.645.139 1.587 1.005-.282.67-.55 1.336-.806 1.99-.064-.098-.151-.229-.212-.328M103.135 36.13L103.309 36.134 103.406 36.361 103.232 36.357zM100.675 43.776c-.161-.194-.14-.414.039-.397.17.017.425.27.378.493-.06.152-.28.076-.417-.096M98.15 51.258c-.267-.301-.252-.634.032-.61.286.027.69.444.64.743-.09.26-.465.099-.673-.133M96.385 59.285c-.64-.345-.636-.715.012-.696.659.019 1.595.487 1.505.85-.165.291-1.022.11-1.517-.154M94.78 68.186c-.63-.663-.695-1.381-.128-1.406.65-.023 1.672.936 1.61 1.696-.14.587-.982.231-1.482-.29M93.203 75.078c-.622-.637-.716-1.372-.175-1.407.624-.042 1.68.922 1.645 1.68-.117.613-.962.241-1.47-.273M92.372 82.554c-.953-.64-1.127-1.376-.33-1.41.911-.04 2.504.925 2.495 1.676-.142.616-1.395.25-2.165-.266M91.935 89.55c-.976-.968-1.178-2.057-.392-2.12.887-.073 2.49 1.371 2.516 2.514-.107.922-1.35.371-2.124-.394M92.515 97.34c-1.32-.977-1.63-2.068-.602-2.12 1.155-.062 3.308 1.382 3.388 2.512-.1.86-1.604.484-2.786-.391M92.35 104.526c-1.252-.92-1.66-1.95-.824-2.086 1.076-.175 3.422 1.332 3.562 2.523-.058.904-1.687.334-2.739-.437M92.77 110.936c-1.26-1.227-1.713-2.586-.913-2.742 1.037-.202 3.402 1.834 3.601 3.408-.009 1.167-1.625.37-2.688-.666M92.618 118.093c-1.281-1.25-1.778-2.586-1.003-2.698 1.005-.147 3.382 1.916 3.63 3.435.04 1.15-1.53.332-2.627-.737M94.158 124.193c-1.31-1.278-1.836-2.568-1.082-2.653.994-.111 3.342 1.948 3.65 3.48.08 1.105-1.469.249-2.568-.827M94.558 131.652c-1.67-1.637-2.359-3.184-1.448-3.247 1.2-.08 4.146 2.533 4.587 4.392.143 1.291-1.592.297-2.9-.917-.075-.066-.17-.16-.24-.228M96.623 138.571c-1.672-1.638-2.403-3.15-1.539-3.172 1.157-.029 4.113 2.623 4.62 4.442.173 1.139-1.232.29-2.09-.39-.414-.328-.768-.66-.991-.88M99.014 144.115c-1.586-1.558-2.382-2.972-1.742-3.09.974-.18 4.173 2.65 4.756 4.48.21 1.07-1.12.178-1.536-.123-.265-.19-.813-.612-1.478-1.267M100.554 150.176c-1.608-1.583-2.426-2.932-1.821-3.007.948-.123 4.104 2.7 4.768 4.528.135.551-.153.615-.856.197-.546-.327-1.347-.985-2.09-1.718M102.573 154.975c-1.758-1.677-2.656-3.01-2.048-3.04.733-.034 3.442 2.04 4.81 4.138-.104.292-.202.58-.297.862-.673-.354-1.716-1.245-2.465-1.96M105.575 160.631c-2.006-1.77-2.894-2.944-2.21-2.925.35.01 1.286.41 2.772 1.502-.18.51-.336 1.011-.477 1.498-.026-.021-.06-.053-.085-.075M94.231 27.555L94.407 27.543 94.504 27.773 94.314 27.775zM90.91 35.729c-.165-.2-.116-.43.087-.405.173.022.403.264.344.48-.074.173-.308.075-.431-.075M88.064 44.595c-.256-.284-.22-.624.065-.618.3.004.687.392.617.704-.108.283-.482.134-.682-.086M84.91 52.318c-.629-.334-.59-.72.069-.727.678-.004 1.597.446 1.47.826-.2.313-1.056.157-1.54-.1M83.614 59.868c-.642-.662-.637-1.454.006-1.463.66-.012 1.597.885 1.51 1.644-.164.63-1.02.331-1.516-.18M81.737 68.15c-.62-.627-.69-1.383-.131-1.47.635-.102 1.674.821 1.618 1.625-.137.64-.98.35-1.487-.156M80.917 75.622c-.966-.633-1.118-1.388-.288-1.47.946-.092 2.498.812 2.46 1.619-.165.658-1.417.346-2.172-.149M80.151 84.03c-.97-.94-1.154-2.075-.36-2.21.899-.155 2.494 1.23 2.503 2.44-.119.952-1.365.523-2.143-.23M80.196 90.962c-1.307-.936-1.6-2.066-.568-2.2 1.166-.147 3.312 1.23 3.377 2.423-.117.993-1.767.524-2.81-.223M80.044 98.144c-1.245-.885-1.647-1.949-.812-2.155 1.076-.26 3.421 1.176 3.56 2.438-.058.962-1.692.465-2.748-.283M79.895 105.325c-1.262-.891-1.716-1.948-.917-2.133 1.03-.239 3.396 1.222 3.602 2.47-.002.937-1.617.417-2.685-.337M80.855 112.59c-1.277-1.201-1.778-2.588-1.013-2.797.992-.268 3.37 1.707 3.637 3.326.05 1.233-1.52.514-2.624-.528M81.837 118.955c-1.636-1.241-2.303-2.578-1.376-2.756 1.19-.227 4.171 1.789 4.573 3.382.12 1.186-1.814.423-3.197-.626M83.383 125.036c-1.644-1.256-2.363-2.568-1.478-2.696 1.176-.172 4.13 1.857 4.607 3.442.171 1.135-1.738.317-3.13-.746M85.2 131.7c-1.583-1.523-2.356-3.02-1.687-3.264.986-.368 4.179 2.34 4.74 4.337.205 1.268-1.38.391-2.568-.63-.15-.13-.344-.307-.485-.444M87.383 136.113c-1.907-1.534-2.884-2.992-2.132-3.185 1.13-.286 4.964 2.47 5.712 4.4.317 1.271-1.69.09-2.096-.16-.22-.136-.804-.511-1.484-1.055M90.316 142.483c-1.934-1.562-2.935-2.95-2.233-3.097 1.064-.223 4.9 2.587 5.729 4.46.245.8-.528.543-1.219.184-.642-.333-1.47-.895-2.277-1.547M92.194 147.163c-1.969-1.603-2.995-2.927-2.334-3.015 1.037-.138 4.812 2.675 5.732 4.518.07.187.281.757-.708.31-.637-.287-1.668-.982-2.69-1.813M94.602 152.688c-1.997-1.631-3.046-2.89-2.44-2.925.975-.06 4.741 2.798 5.74 4.568.081.187.252.572-.31.377-.552-.194-1.725-.986-2.99-2.02M98.185 159.295c-2.399-2.022-3.618-3.424-2.971-3.408.994.026 5.33 3.313 6.702 5.542.095.184.29.568-.15.428-.638-.2-2.33-1.507-3.581-2.562" transform="translate(192 -41) rotate(-148 81.404 209.316)"/>
                <path fill="#00AB96" d="M101.665 163.315c-1.445-1.357-3.146-3.058-3.045-3.435.461-.262 3.863 2.444 5.995 5.186-.01.272-.016.536-.014.796-.848-.6-2.462-2.102-2.936-2.547M104.553 168.487c-3.273-2.913-3.695-3.5-3.665-3.697.172-.066 1.185.392 3.793 2.594.042.49.11.955.206 1.4l-.334-.297" transform="translate(192 -41) rotate(-148 81.404 209.316)"/>
                <path fill="#00AB96" d="M104.72 168.792c-.201-.259-.204-.3-.207-.348.037-.01.04-.01.136.045.033.12.07.237.11.351l-.038-.048M84.171 20.884L84.353 20.86 84.424 21.075 84.243 21.099zM80.833 29.07c-.154-.188-.09-.426.115-.415.17.007.385.218.31.444-.08.165-.3.122-.425-.029M77.986 37.943c-.268-.282-.185-.649.138-.634.302.016.632.353.545.661-.115.268-.461.205-.683-.027M74.815 45.673c-.657-.338-.526-.765.228-.76.684.004 1.484.416 1.329.795-.223.312-1.031.239-1.557-.035M72.35 55.167c-.627-.623-.593-1.463.063-1.53.67-.066 1.594.79 1.476 1.587-.18.617-.998.487-1.54-.057M70.478 63.446c-.646-.624-.65-1.458-.008-1.539.653-.082 1.597.754 1.516 1.558-.164.703-1.016.452-1.508-.02M69.106 70.077c-.935-.582-1.057-1.383-.226-1.53.942-.164 2.513.694 2.442 1.538-.193.703-1.463.464-2.216-.008M68.364 78.529c-.965-.882-1.127-2.065-.314-2.305.913-.268 2.498 1.018 2.478 2.3-.146 1.055-1.4.697-2.164.005M66.19 85.678c-1.307-.89-1.582-2.072-.536-2.301 1.18-.26 3.317 1.025 3.36 2.294-.127.98-1.647.806-2.824.007M66.056 92.86c-1.258-.845-1.654-1.958-.802-2.248 1.081-.364 3.42.974 3.547 2.304-.066 1.034-1.697.651-2.745-.056M68.138 99.825c-1.274-.851-1.728-1.951-.918-2.22 1.061-.352 3.388.982 3.594 2.332-.006 1.016-1.59.612-2.676-.112M67.978 106.99c-1.279-.86-1.782-1.947-1.011-2.19.987-.313 3.363 1.077 3.634 2.374.05.999-1.519.559-2.623-.184M70.079 113.489c-1.64-1.19-2.313-2.587-1.384-2.88 1.18-.37 4.16 1.53 4.573 3.235.127 1.284-1.804.648-3.19-.355M71.099 118.723c-1.646-1.208-2.374-2.58-1.496-2.824 1.16-.325 4.11 1.594 4.613 3.303.18 1.236-1.725.541-3.117-.48M72.967 124.528c-1.902-1.174-2.841-2.42-2.051-2.72 1.156-.447 4.985 1.603 5.694 3.326.288 1.193-1.928.451-3.643-.606M75.905 130.91c-1.91-1.19-2.901-2.407-2.164-2.655 1.096-.372 4.93 1.737 5.716 3.402.338 1.097-1.592.324-2.661-.237-.266-.139-.63-.348-.89-.51M77.528 135.322c-1.953-1.535-2.972-2.983-2.276-3.228 1.066-.374 4.842 2.285 5.727 4.339.345 1.136-1.062.444-1.684.094-.314-.179-.962-.57-1.767-1.205M80.29 140.566c-2.317-1.585-3.538-2.965-2.774-3.136 1.175-.267 5.574 2.463 6.69 4.423.256.6-.087.716-1.02.35-.73-.288-1.838-.913-2.895-1.637M82.707 146.073c-2.35-1.62-3.591-2.925-2.893-3.035 1.129-.177 5.454 2.572 6.696 4.5.094.187.351.69-.51.407-.686-.226-1.948-.945-3.293-1.872M86.814 150.515c-2.404-1.674-3.637-2.876-3-2.926.953-.072 5.27 2.603 6.697 4.57.105.174.302.504-.134.413-.638-.132-2.318-1.19-3.563-2.057M90.934 154.97c-2.351-1.645-3.546-2.695-3.2-2.813.62-.207 5.152 2.627 6.781 4.622.16.227.174.265.152.354-.32.168-2.476-1.282-3.733-2.163M94.348 159.301c-3.409-2.525-3.85-3.06-3.834-3.251.873-.146 5.965 3.527 7.785 5.615.195.252.223.296.213.38-.178.006-.443.015-4.164-2.744M98.758 164.192c-2.462-2.12-3.698-3.183-3.952-3.601.009-.02.02-.044.026-.063.867.187 5.427 3.885 7.724 6.599.152.19.187.234.25.35-.007.017-.014.037-.021.051-.301-.127-1.016-.743-4.027-3.336M102.2 168.273c-1.272-1.258-2.708-2.324-3.82-3.77.225-.022 3.296 2.603 6.621 6.404.117.208.244.409.379.596-2.325-2.384-2.325-2.384-3.18-3.23M102.424 169.63c1.257.895 2.462 1.794 3.795 2.835.066.055.134.11.205.166-1.313-1.026-2.645-2.024-4-3M76.013 15.387L76.201 15.343 76.259 15.551 76.071 15.592zM71.282 23.257c-.154-.185-.052-.441.171-.427.162.009.346.193.258.418-.098.183-.325.134-.429.009M67.577 32.668c-.263-.274-.13-.659.224-.648.284.013.573.318.474.616-.141.292-.515.221-.698.032M64.374 40.412c-.614-.313-.434-.762.322-.799.686-.035 1.475.358 1.277.754-.276.359-1.148.277-1.6.045M60.553 49.637c-.649-.622-.52-1.548.224-1.618.693-.067 1.492.68 1.338 1.5-.229.716-1.09.566-1.562.118M58.681 57.913c-.63-.577-.602-1.45.056-1.61.668-.158 1.59.606 1.48 1.455-.196.753-1.055.593-1.536.155M56.991 65.925c-.985-.574-1.004-1.452-.035-1.616.974-.168 2.386.593 2.279 1.442-.231.76-1.506.607-2.244.174M55.98 73.672c-.949-.537-1.08-1.355-.251-1.595.932-.268 2.505.502 2.45 1.409-.18.756-1.442.614-2.199.186M54.079 81.572c-1.298-.816-1.547-2.045-.486-2.393 1.197-.39 3.324.765 3.337 2.11-.162 1.146-1.825.927-2.851.283M54.475 89.61c-1.32-.82-1.645-2.045-.631-2.38 1.148-.378 3.303.8 3.403 2.146-.083 1.124-1.723.884-2.772.234M54.648 95.413c-1.257-.777-1.695-1.921-.884-2.311 1.04-.499 3.397.719 3.589 2.143-.018 1.098-1.64.827-2.705.168M56.21 101.52c-1.282-.797-1.78-1.934-1.003-2.288.994-.456 3.365.791 3.628 2.18.047 1.094-1.523.796-2.625.109M57.203 107.898c-1.644-.826-2.318-1.928-1.382-2.262 1.21-.434 4.147.83 4.569 2.237.127 1.06-1.802.721-3.187.025M57.91 114.524c-1.557-.8-2.314-1.818-1.62-2.179 1.015-.53 4.203.82 4.728 2.256.19 1.026-1.712.64-3.109-.077M60.885 120.48c-1.873-1.082-2.839-2.41-2.066-2.845 1.144-.646 4.978 1.224 5.704 3.1.304 1.321-1.914.743-3.638-.254M63.624 124.627c-1.914-1.13-2.913-2.404-2.184-2.784 1.078-.562 4.909 1.386 5.719 3.202.378 1.296-1.85.577-3.535-.418M65.521 130.41c-2.264-1.171-3.46-2.388-2.668-2.71 1.176-.48 5.64 1.553 6.689 3.313.535 1.29-2.306.17-2.63.039-.573-.232-1.072-.477-1.391-.642M69.64 134.863c-2.271-1.201-3.528-2.383-2.795-2.629 1.135-.39 5.536 1.686 6.705 3.407.364.726-.493.595-1.274.358-.728-.223-1.687-.634-2.635-1.136M71.803 140.085c-2.347-1.58-3.6-2.945-2.913-3.173 1.062-.353 5.442 2.33 6.693 4.375.11.23.405.845-.697.481-.707-.233-1.889-.878-3.083-1.683" transform="translate(192 -41) rotate(-148 81.404 209.316)"/>
                <path fill="#00AB96" d="M76.298 144.24c-2.72-1.624-4.176-2.907-3.464-3.052 1.16-.233 6.084 2.493 7.653 4.474.133.205.409.629-.289.481-.824-.178-2.554-1.097-3.9-1.903M79.578 149.19c-2.658-1.607-4.068-2.718-3.681-2.901.675-.325 5.83 2.404 7.734 4.532.143.187.342.444.06.441-.509-.003-2.458-1.073-4.113-2.072M83.182 152.773c-3.871-2.369-3.856-2.66-3.85-2.77.517-.363 5.792 2.646 7.772 4.608.204.229.23.267.227.355-.152.027-.437.078-4.15-2.193" transform="translate(192 -41) rotate(-148 81.404 209.316)"/>
                <path fill="#00AB96" d="M87.633 155.82c-2.588-1.583-3.709-2.296-3.956-2.609.008-.017.015-.041.023-.058.8.04 5.419 2.676 7.722 4.682.158.147.192.181.255.27-.004.014-.012.032-.019.048-.279-.062-.994-.477-4.025-2.333M92.468 160.443c-4.466-2.949-4.466-2.949-4.574-3.048.018-.009.048-.018.069-.025 1.286.51 5.652 3.273 8.606 5.71.11.095.223.188.325.29-.082.003-.091.004-1.22-.766-1.125-.769-1.87-1.277-3.206-2.161M66.475 9.57L66.668 9.506 66.719 9.712 66.518 9.766zM62.253 18.29c-.145-.171-.001-.452.229-.44.156.005.319.166.215.39-.114.196-.346.165-.444.05M57.699 28.244c-.26-.26-.063-.678.312-.667.248.004.52.244.395.562-.165.307-.535.274-.707.105M53.626 36.535c-.619-.302-.314-.799.517-.844.67-.038 1.345.302 1.106.705-.32.381-1.194.347-1.623.14M49.802 45.803c-.618-.557-.438-1.518.314-1.69.635-.146 1.49.467 1.28 1.374-.268.771-1.14.72-1.594.316M47.088 54.617c-.642-.539-.52-1.506.218-1.698.681-.179 1.496.48 1.348 1.338-.223.784-1.093.758-1.566.36M44.015 62.31c-.965-.508-.935-1.418.055-1.676 1.016-.266 2.387.383 2.226 1.29-.277.81-1.557.77-2.28.387M43.007 70.065c-.983-.496-1.017-1.41-.063-1.687.961-.28 2.39.371 2.3 1.28-.21.785-1.48.787-2.237.407M41.9 78.906c-1.277-.474-1.492-1.317-.418-1.64 1.222-.365 3.335.288 3.311 1.233-.196.818-1.87.786-2.893.407M41.51 86.055c-1.305-.712-1.604-1.976-.578-2.458 1.163-.543 3.31.454 3.384 1.883-.11 1.205-1.76 1.144-2.806.575M42.225 92.719c-1.25-.676-1.671-1.853-.851-2.38 1.055-.677 3.407.334 3.577 1.848-.036 1.187-1.662 1.107-2.726.532M42.354 99.63c-1.59-.69-2.196-1.862-1.222-2.366 1.253-.646 4.213.388 4.53 1.881.045 1.195-1.929 1.084-3.308.485M43.937 105.751c-1.635-.722-2.299-1.868-1.364-2.356 1.181-.621 4.159.458 4.567 1.945.124 1.168-1.814 1.021-3.203.411M44.418 111.267c-1.861-.704-2.764-1.759-1.931-2.258 1.217-.73 5.045.395 5.672 1.956.23 1.136-2.063.938-3.74.302M47.698 116.295c-1.906-.74-2.851-1.764-2.066-2.232 1.14-.675 4.963.514 5.694 2.045.308 1.11-1.907.857-3.628.187M49.596 122.113c-2.236-.774-3.405-1.78-2.556-2.202 1.245-.614 5.71.656 6.673 2.157.435 1.06-2.104.74-4.117.045M52.336 126.27c-2.232-.797-3.465-1.782-2.693-2.151 1.158-.552 5.626.798 6.7 2.265.509 1.002-1.887.595-3.666.005-.103-.035-.24-.082-.341-.119M56.727 131.383c-2.278-1.125-3.54-2.372-2.82-2.783 1.112-.632 5.508 1.243 6.704 3.156.497 1.08-1.114.683-1.83.462-.362-.111-1.112-.37-2.054-.835M58.991 135.752c-2.641-1.18-4.119-2.36-3.364-2.69 1.177-.511 6.19 1.472 7.669 3.301.353.563.008.741-1.026.533-.813-.166-2.068-.604-3.279-1.144M62.589 139.32c-2.717-1.253-4.185-2.337-3.49-2.58 1.114-.393 6.03 1.66 7.65 3.429.139.185.424.57-.262.517-.821-.063-2.614-.775-3.898-1.366M67.564 143.2c-2.613-1.23-4.068-2.183-3.706-2.425.629-.422 5.767 1.622 7.734 3.504.144.163.41.464-.036.439-.645-.038-2.555-.843-3.992-1.518" transform="translate(192 -41) rotate(-148 81.404 209.316)"/>
                <path fill="#00AB96" d="M72.686 146.486c-4.34-2.323-4.347-2.727-4.348-2.86.528-.547 6.446 2.352 8.734 4.498.224.24.265.291.266.407-.215.18-1.779-.507-4.652-2.045M76.307 150.014c-3.282-1.782-4.412-2.471-4.471-2.73.703-.25 6.199 2.563 8.703 4.619.177.157.218.195.297.301-.007.02-.013.048-.021.065-.238-.02-.72-.2-4.508-2.255M77.194 151.67c-.343-.204-.389-.244-.481-.324-.003-.013-.001-.033-.001-.049.754.079 5.548 2.502 8.667 4.732.114.084.228.169.332.263-.035.013-.091.001-.126-.014-2.74-1.668-5.54-3.203-8.39-4.607M58.856 4.921L59.052 4.837 59.074 5.024 58.882 5.107zM52.918 14.707c-.14-.157.057-.463.289-.456.133.003.26.13.147.352-.12.187-.34.213-.436.104M48.355 24.666c-.243-.222-.012-.661.364-.688.271-.022.485.198.344.502-.177.307-.527.353-.708.186M43.412 33.503c-.625-.27-.172-.827.725-.886.642-.04 1.189.248.912.642-.35.378-1.181.443-1.637.244M38.213 42.496c-.63-.504-.333-1.56.5-1.767.684-.172 1.344.4 1.116 1.238-.289.75-1.13.918-1.616.53M36.03 52.159c-.624-.451-.455-1.446.298-1.745.694-.273 1.478.288 1.292 1.166-.27.845-1.134.91-1.59.579M32.62 61.236c-.936-.42-.85-1.349.16-1.713 1.015-.365 2.376.169 2.165 1.096-.329.851-1.617.936-2.326.617M31.096 68.14c-.967-.402-.957-1.33.016-1.713.988-.387 2.393.126 2.255 1.068-.255.848-1.536.951-2.271.644M29.462 76.144c-1.27-.386-1.444-1.24-.339-1.663 1.243-.475 3.336.027 3.267 1.003-.237.86-1.921.966-2.928.66M28.239 83.887c-1.232-.537-1.561-1.725-.662-2.396 1.165-.87 3.447-.17 3.489 1.418-.14 1.265-1.794 1.426-2.827.978M28.643 91.93c-1.256-.532-1.66-1.713-.813-2.383 1.1-.873 3.41-.164 3.553 1.43-.056 1.27-1.66 1.413-2.74.954M29.084 97.486c-1.588-.545-2.176-1.733-1.185-2.395 1.265-.85 4.22-.108 4.514 1.456.023 1.276-1.955 1.408-3.33.939M29.823 104.149c-1.536-.53-2.221-1.599-1.467-2.286 1.092-.993 4.266-.263 4.688 1.408.108 1.251-1.836 1.356-3.221.878M32.535 109.473c-1.855-.553-2.753-1.622-1.917-2.284 1.218-.97 5.043-.187 5.67 1.483.223 1.238-2.073 1.302-3.753.801M33.59 114.728c-1.874-.58-2.838-1.644-2.065-2.276 1.136-.934 4.967-.082 5.703 1.578.31 1.225-1.91 1.233-3.638.698M35.82 119.18c-2.232-.627-3.407-1.667-2.563-2.271 1.232-.882 5.698.06 6.674 1.709.448 1.19-2.093 1.129-4.11.562M38.578 123.344c-2.248-.669-3.491-1.694-2.713-2.239 1.176-.828 5.577.192 6.693 1.844.543 1.179-2.008.983-3.98.395M43.602 128.39c-2.621-.733-4.084-1.725-3.257-2.21 1.25-.733 6.266.405 7.655 2.01.66 1.056-1.708.805-3.21.49-.337-.07-.85-.195-1.188-.29M46.89 133.36c-2.66-.796-4.155-1.742-3.402-2.153 1.151-.63 6.154.628 7.66 2.178.402.543-.03.748-1.28.618-.802-.082-1.886-.318-2.979-.644M50.477 136.934c-2.683-.85-4.2-1.74-3.527-2.073 1.051-.515 6.038.872 7.66 2.35.136.153.49.56-.437.54-.725-.012-2.18-.335-3.696-.817M55.32 139.707c-2.901-.857-4.591-1.629-4.205-1.921.736-.557 6.581.942 8.699 2.44.165.14.473.4-.025.437-.725.054-2.861-.482-4.469-.956" transform="translate(192 -41) rotate(-148 81.404 209.316)"/>
                <path fill="#00AB96" d="M59.522 142.452c-3.075-1.267-4.657-2.16-4.34-2.448.564-.507 6.268 1.471 8.676 3.463.244.233.275.276.283.396-.25.303-2.65-.599-4.619-1.41" transform="translate(192 -41) rotate(-148 81.404 209.316)"/>
                <path fill="#00AB96" d="M65.361 145.746c-3.628-1.55-4.42-2.03-4.496-2.274.63-.407 6.095 1.742 8.677 3.594.26.205.295.242.323.333-.154.062-.331.13-4.504-1.653" transform="translate(192 -41) rotate(-148 81.404 209.316)"/>
                <path fill="#00AB96" d="M64.68 145.754c1.564.307 6.026 2.214 9 4-2.952-1.475-5.956-2.81-9-4M51.442 2.501L51.643 2.392 51.649 2.567 51.447 2.673zM44.635 12.819c-.13-.144.116-.478.352-.478.112 0 .217.101.087.319-.135.197-.355.253-.439.159M39.533 21.946c-.235-.205.115-.715.5-.728.217-.006.366.18.217.458-.212.335-.576.393-.717.27M33.714 31.318c-.597-.236.014-.84.938-.924.589-.054 1.034.182.722.571-.425.418-1.285.502-1.66.353M29.58 42.05c-.59-.4-.23-1.485.608-1.81.625-.243 1.33.132 1.03 1.05-.362.84-1.227 1.038-1.638.76M24.646 51.073c-.597-.353-.372-1.354.392-1.76.705-.375 1.458.055 1.225.947-.316.875-1.182 1.069-1.617.813M20.69 59.301c-.903-.315-.753-1.244.28-1.709 1.042-.468 2.363-.086 2.089.853-.388.877-1.681 1.096-2.368.856M18.011 68.11c-.943-.294-.883-1.214.11-1.7 1.009-.492 2.388-.134 2.2.817-.3.87-1.59 1.107-2.31.884M17.22 75.588c-1.247-.275-1.372-1.113-.244-1.633 1.271-.585 3.345-.266 3.22.718-.287.88-1.98 1.135-2.976.915M15.468 82.528c-1.208-.365-1.499-1.518-.584-2.328 1.164-1.032 3.467-.635 3.462.94-.178 1.303-1.85 1.699-2.878 1.388M15.88 90.59c-1.235-.353-1.607-1.501-.756-2.32 1.095-1.045 3.431-.663 3.54.922-.085 1.296-1.733 1.699-2.785 1.398M14.641 97.214c-1.492-.328-2.099-1.37-1.273-2.186 1.199-1.185 4.352-.89 4.629.778 0 1.312-1.987 1.71-3.356 1.408M16.24 103.36c-1.538-.333-2.21-1.353-1.439-2.183 1.11-1.192 4.278-.888 4.676.796.096 1.297-1.854 1.69-3.238 1.388M18.96 108.708c-1.862-.348-2.75-1.368-1.9-2.188 1.232-1.192 5.055-.86 5.662.829.214 1.296-2.085 1.669-3.762 1.359M20.014 113.99c-1.87-.358-2.831-1.382-2.054-2.188 1.136-1.187 4.967-.818 5.7.892.308 1.295-1.913 1.63-3.646 1.296M22.784 119.32c-2.235-.395-3.41-1.405-2.565-2.205 1.225-1.165 5.689-.726 6.673.995.453 1.28-2.086 1.571-4.108 1.21M25.8 123.504c-2.233-.292-3.478-.97-2.716-1.48 1.125-.753 5.589-.394 6.698.763.555.87-2.001.977-3.982.717M29.773 126.91c-2.611-.338-4.077-1-3.27-1.482 1.217-.724 6.236-.293 7.664.883.723.847-2.14.891-4.394.6M33.392 130.555c-2.659-.394-4.162-1.043-3.428-1.483 1.12-.664 6.122-.123 7.668 1.042.669.68-1.117.69-1.915.662-.403-.013-1.242-.06-2.325-.221M37.386 133.912c-3.036-.454-4.758-1.08-4.012-1.458 1.178-.595 6.695.055 8.607 1.213.174.135.635.495-.704.555-.86.039-2.352-.08-3.891-.31M42.11 137.678c-2.914-.732-4.623-1.55-4.248-2.03.696-.901 6.522.251 8.684 2.004.181.18.561.56-.15.66-.836.117-2.83-.267-4.286-.634" transform="translate(192 -41) rotate(-148 81.404 209.316)"/>
                <path fill="#00AB96" d="M47.427 140.128c-3.046-.853-4.687-1.587-4.387-1.962.517-.653 6.196.533 8.662 2.301.251.212.286.254.303.388-.234.418-2.968-.273-4.578-.727" transform="translate(192 -41) rotate(-148 81.404 209.316)"/>
                <path fill="#00AB96" d="M52.633 141.454c-4.278-1.157-4.95-1.55-5.04-1.778.306-.647 6.674.852 9.619 2.469.297.184.34.218.38.32-.142.091-.358.233-4.96-1.011" transform="translate(192 -41) rotate(-148 81.404 209.316)"/>
                <g transform="translate(192 -41) rotate(-148 81.404 209.316) translate(44.345 .101)">
                    <mask id="c6mz6drmdb" fill="#fff">
                        <use xlink:href="#3b2glwg5ea"/>
                    </mask>
                    <path fill="#00AB96" d="M0.741 0.748L1.046 0.551 1.038 0.788 0.72 0.985z" mask="url(#c6mz6drmdb)"/>
                </g>
                <path fill="#00AB96" d="M37.196 10.403c-.121-.125.219-.522.434-.505.073.005.16.072.015.289-.164.225-.384.284-.45.216M29.547 21.13c-.218-.17.22-.737.591-.768.163-.013.31.104.132.405-.24.352-.598.46-.723.364M22.851 31.033c-.533-.176.159-.79 1.06-.94.586-.098.98.09.611.476-.48.427-1.328.572-1.67.464M18.188 40.944c-.572-.298-.057-1.452.82-1.843.672-.296 1.112.094.874.77l-.042.102c-.412.85-1.275 1.169-1.652.971M13.782 50.812c-.584-.25-.227-1.322.598-1.789.697-.395 1.271-.042 1.075.663-.006.03-.021.068-.031.099-.355.855-1.229 1.208-1.642 1.027M8.967 59.568c-.865-.203-.64-1.1.418-1.655 1.105-.58 2.257-.305 2.019.484-.012.03-.03.068-.04.1-.451.876-1.743 1.224-2.397 1.07M7.152 67.844c-.87-.167-.824-.969.085-1.558 1.146-.739 2.418-.413 2.28.357-.006.03-.02.07-.026.1-.338.836-1.633 1.238-2.34 1.101M4.06 77.825c-1.14-.215-1.277-1.297-.28-2.189 1.325-1.182 3.41-.975 3.328.328-.002.045-.013.103-.02.15-.342 1.304-2.049 1.894-3.028 1.71M2.59 84.725c-1.187-.182-1.435-1.252-.498-2.162 1.2-1.17 3.487-1.121 3.427.406-.222 1.287-1.909 1.908-2.928 1.756M1.963 91.091c-1.167-.146-1.544-1.074-.808-1.988 1.065-1.318 3.553-1.407 3.622.212-.118 1.26-1.772 1.904-2.814 1.776M2.693 97.772c-1.178-.12-1.642-1.058-.97-1.962.98-1.324 3.5-1.456 3.69.142-.024 1.282-1.628 1.935-2.72 1.82M3.696 104.189c-1.52-.104-2.173-1.012-1.393-1.938 1.126-1.34 4.292-1.501 4.667.103.074 1.265-1.89 1.934-3.274 1.835M4.2 109.756c-1.85-.095-2.724-.994-1.869-1.923 1.248-1.345 5.067-1.53 5.659.07.198 1.262-2.114 1.94-3.79 1.853M6.65 115.375c-1.87-.089-2.825-.979-2.042-1.907 1.145-1.36 4.973-1.553 5.699.055.297 1.249-1.967 1.931-3.657 1.852M8.896 119.88c-2.234-.093-3.408-.969-2.562-1.913 1.224-1.365 5.686-1.543 6.672.084.453 1.257-2.088 1.911-4.11 1.829M11.393 123.196c-2.234-.071-3.484-.66-2.729-1.283 1.113-.916 5.577-1.01 6.702.098.55.832-1.943 1.25-3.973 1.185M15.905 127.483c-2.61-.098-4.089-.675-3.296-1.292 1.196-.926 6.21-.98 7.663.167.751.858-2.103 1.213-4.367 1.125M19.52 131.18c-2.606-.134-4.16-.731-3.46-1.326 1.081-.917 6.08-.893 7.67.289.873.894-2.036 1.037-2.628 1.055-.642.02-1.214.001-1.581-.018M25.228 133.538c-2.984-.197-4.77-.8-4.064-1.374 1.095-.89 6.694-.746 8.625.471.486.409.171.693-.937.848-.87.124-2.258.142-3.624.055M29.167 135.802c-3.07-.282-4.843-.87-4.215-1.398 1-.847 6.478-.55 8.593.715.189.144.58.442-.117.645-.829.244-2.814.171-4.261.038M34.903 138.058c-3.287-.375-5.224-.9-4.93-1.338.511-.764 6.789-.469 9.615.958.212.13.61.376.127.529-.69.213-2.94.062-4.812-.149" transform="translate(192 -41) rotate(-148 81.404 209.316)"/>
                <path fill="#00AB96" d="M35.848 138.97c-.844-.223-1.157-.359-1.24-.542.22-.757 6.653-.075 9.595 1.236.309.161.353.193.405.306-.021.044-.061.142-.592.142-2.71-.497-5.435-.877-8.168-1.142M139.836 252.523c-.056-2.845-.44-5.24-.696-5.02-.385.334-.4 7.479-.019 9.557.056.224.171.69.349.239.217-.553.414-2.37.366-4.776M142.833 257.33c-.022-2.465-.637-4.68-1.216-4.386-.739.371-1.154 6.694-.333 8.637.119.196.39.659.807-.02.458-.749.757-2.447.742-4.231M144.316 263.359c.026-2.52-.52-4.623-1.1-4.25-.797.511-1.302 6.823-.476 8.688.492.776.925-.322 1.09-.83.288-.914.473-2.261.486-3.608M146.699 267.076c.045-2.242-.466-4.042-1.035-3.636-.829.59-1.388 6.164-.543 7.744.635.81 1.24-1.025 1.45-2.52.071-.515.114-1.05.128-1.588M149.346 271.184c.058-2.282-.434-3.97-1.01-3.475-.843.72-1.417 6.337-.564 7.768.72.792 1.51-1.787 1.574-4.293M154.03 274.978c.086-1.983-.643-3.384-1.5-2.885-1.323.777-2.144 5.661-.818 6.807 1.084.583 2.224-1.715 2.319-3.922M158.379 278.015c.074-2.134-.745-3.414-1.659-2.591-1.142 1.04-2.006 5.68-.629 6.688 1.118.472 2.21-1.899 2.288-4.097M163.838 281.057c.066-1.808-.765-2.822-1.675-2.048-1.154.982-1.99 4.987-.582 5.71 1.115.291 2.192-1.806 2.257-3.662M168.504 282.73c.044-1.784-.803-2.709-1.706-1.866-1.16 1.079-1.955 5.098-.52 5.675 1.126.177 2.183-1.984 2.226-3.81M173.752 283.602c.027-1.466-.84-2.154-1.747-1.388-1.284 1.084-1.815 4.356-.454 4.683 1.156.05 2.177-1.77 2.201-3.295" transform="translate(192 -41) rotate(-148 81.404 209.316)"/>
                <g transform="translate(192 -41) rotate(-148 81.404 209.316) translate(177.113 282.64)">
                    <mask id="t6wbkjo76d" fill="#fff">
                        <use xlink:href="#oln1r3oq4c"/>
                    </mask>
                    <path fill="#00AB96" d="M2.94 1.606C2.932.156 2.102-.427 1.224.403-.044 1.606-.506 4.796.874 5 1.99 4.948 2.944 3.09 2.94 1.606" mask="url(#t6wbkjo76d)"/>
                </g>
                <path fill="#00AB96" d="M185.942 284.017c-.025-1.44-.91-1.935-1.819-1.02-1.171 1.179-1.815 4.476-.263 4.538 1.156-.16 2.112-2.069 2.082-3.518M193.73 283.376c-.063-1.118-.969-1.434-1.867-.646-1.332 1.17-1.545 3.533-.32 3.564.042 0 .1-.007.143-.008 1.173-.224 2.106-1.788 2.045-2.91M199.484 282.897c-.058-1.08-.675-1.304-1.273-.457-.886 1.257-.984 3.568-.15 3.48.03-.002.068-.015.096-.019.806-.33 1.383-1.912 1.327-3.004M208.438 280.416c-.08-.823-.78-.862-1.385-.075-.77.999-.82 2.456-.083 2.433.057-.002.135-.02.186-.036.807-.326 1.36-1.536 1.282-2.322M216.276 277.773c-.117-.815-.898-.691-1.495.235-.682 1.057-.648 2.32.06 2.217.057-.01.132-.038.187-.058.797-.413 1.355-1.66 1.248-2.394M225.546 274.006c-.137-.536-1.024-.329-1.605.377-.58.706-.472 1.428.203 1.307.06-.011.138-.037.195-.056.818-.338 1.33-1.166 1.207-1.628M234.55 269.494c-.192-.541-1.242-.117-1.754.713-.418.668-.22 1.18.395 1.014.059-.016.137-.049.195-.072.802-.397 1.31-1.242 1.164-1.655M242.36 265.235c-.107-.254-.66.048-.87.477-.157.314-.046.505.233.402.03-.01.067-.029.092-.044.397-.232.621-.647.545-.835M251.885 258.11c-.11-.193-.609.184-.69.526-.035.137.042.261.305.1.287-.198.451-.512.385-.626M261.745 251.915L261.503 252.238 261.708 252.238 261.936 251.932z" transform="translate(192 -41) rotate(-148 81.404 209.316)"/>
                <g transform="translate(192 -41) rotate(-148 81.404 209.316) translate(270.525 243.18)">
                    <mask id="jdxgsr3azf" fill="#fff">
                        <use xlink:href="#byqo2euq9e"/>
                    </mask>
                    <path fill="#00AB96" d="M1.083 0.745L0.985 0.883 1.073 0.87 1.182 0.731z" mask="url(#jdxgsr3azf)"/>
                </g>
                <path fill="#00AB96" d="M137.723 234.315c-.189-1.278-.398-2.27-.477-2.634.317 1.99.584 3.99.805 6-.019-.423-.062-1.54-.328-3.366M139.736 239.665c-.352-2.205-1.086-4.788-1.547-4.95-.566.252.469 7.72 1.18 9.596.114.238.273.57.443.31.274-.425.322-2.44-.076-4.956M142.76 244.226c-.348-2.43-1.17-4.648-1.598-4.312-.545.422-.022 6.765.903 8.65.121.19.404.636.652-.065.283-.778.297-2.494.043-4.273M146.015 249.183c-.271-2.46-1.043-4.564-1.53-4.166-.672.55-.384 6.875.598 8.694.36.49.645.28.851-.621.169-.728.278-2.135.08-3.907M148.125 254.3c-.215-2.233-.93-4.003-1.45-3.573-.746.619-.648 6.208.365 7.753.674.729 1.012-.895 1.102-1.856.046-.5.078-1.307-.017-2.323M151.646 257.885c-.183-2.422-.926-4.098-1.472-3.32-.66.945-.736 6.252.295 7.674.77.723 1.314-1.616 1.2-3.965-.005-.117-.016-.274-.023-.39M154.89 261.105c-.15-2.099-.869-3.485-1.426-2.745-.758 1.011-.762 5.667.2 6.712.819.569 1.384-1.752 1.227-3.967M160.154 263.907c-.205-2.129-1.237-3.405-2.085-2.578-1.068 1.042-1.358 5.686.223 6.687 1.24.464 2.073-1.911 1.862-4.109M165.617 266.963c-.188-1.806-1.211-2.824-2.064-2.055-1.086.976-1.4 4.979.2 5.713 1.219.296 2.06-1.797 1.864-3.658M170.28 268.65c-.19-1.785-1.212-2.723-2.06-1.894-1.089 1.064-1.405 5.081.199 5.683 1.218.194 2.058-1.955 1.862-3.79M176.056 270.384c-.191-1.475-1.205-2.186-2.05-1.432-1.215 1.094-1.308 4.326.214 4.694 1.226.077 2.036-1.73 1.836-3.262M181.563 271.556c-.206-1.47-1.206-2.088-2.057-1.273-1.221 1.175-1.282 4.387.255 4.637 1.225-.017 2.015-1.864 1.802-3.364M188.767 271.65c-.219-1.434-1.224-1.967-2.067-1.094-1.228 1.263-1.253 4.454.313 4.577 1.212-.112 1.978-2.012 1.754-3.484M194.263 270.958c-.173-1.192-.925-1.496-1.49-.6-.66 1.045-.712 3.49.33 3.48.823-.176 1.328-1.73 1.16-2.88M201.785 269.694c-.182-1.159-.941-1.373-1.503-.426-.657 1.107-.68 3.526.378 3.4.817-.266 1.3-1.855 1.125-2.974M209.57 269.12c-.21-.89-1.035-.921-1.582-.064-.64 1.007-.456 2.538.502 2.362.809-.27 1.27-1.487 1.08-2.298M218.254 265.97c-.248-.905-1.152-.784-1.67.226-.533 1.043-.291 2.387.617 2.131.816-.352 1.26-1.588 1.053-2.357M225.828 263.236c-.268-.595-1.278-.384-1.744.364-.4.648-.222 1.498.737 1.247.9-.314 1.2-1.178 1.007-1.61M233.934 259.002c-.163-.593-.691-.245-.899.595-.154.618-.043 1.343.42 1.035.404-.343.602-1.183.479-1.63M243.166 255.298c-.164-.285-.69-.027-.844.415-.099.282.018.592.418.412.412-.222.53-.645.426-.827M252.916 250.389c-.146-.209-.592.097-.65.445-.036.195.1.318.349.183.276-.176.395-.494.3-.628M261.397 243.848L261.192 244.154 261.424 244.193 261.612 243.882z" transform="translate(192 -41) rotate(-148 81.404 209.316)"/>
                <g transform="translate(192 -41) rotate(-148 81.404 209.316) translate(271.344 237.085)">
                    <mask id="2xd4ue18vh" fill="#fff">
                        <use xlink:href="#pyfrz1fxng"/>
                    </mask>
                    <path fill="#00AB96" d="M0.598 0.718L0.537 0.838 0.612 0.854 0.682 0.706z" mask="url(#2xd4ue18vh)"/>
                </g>
                <path fill="#00AB96" d="M137.75 226.092c-.697-2.198-1.702-4.292-2.108-4.392-.502.297 1.642 7.213 2.431 8.663.175.27.217.308.335.337.371-.181.064-2.332-.658-4.608M141.623 231.918c-.715-2.42-1.876-4.602-2.256-4.242-.477.448 1.014 6.81 2.222 8.667.14.174.432.535.598.052.203-.589.075-2.314-.564-4.477" transform="translate(192 -41) rotate(-148 81.404 209.316)"/>
                <path fill="#00AB96" d="M144.421 236.037c-.662-2.46-1.83-4.531-2.312-4.104-.663.585.584 6.92 1.937 8.699.154.158.62.634.816-.418.168-.915-.003-2.552-.44-4.177" transform="translate(192 -41) rotate(-148 81.404 209.316)"/>
                <path fill="#00AB96" d="M147.454 240.636c-.603-2.229-1.763-3.975-2.334-3.523-.794.63.211 6.298 1.642 7.755 1.036.78 1.08-1.313 1.078-1.556.006-.782-.135-1.757-.386-2.676M151.58 245.068c-.572-2.374-1.808-4.056-2.41-3.274-.736.962-.084 6.279 1.474 7.674 1.091.688 1.375-1.462 1.153-3.216-.042-.341-.133-.84-.217-1.184M156.57 247.25c-.511-2.096-1.705-3.467-2.365-2.716-.903 1.023-.231 5.68 1.248 6.709 1.209.557 1.657-1.778 1.117-3.993M160.958 250.33c-.475-2.129-1.634-3.4-2.33-2.564-.971 1.16-.427 5.759 1.098 6.686 1.212.448 1.72-1.943 1.232-4.122M165.059 253.078c-.444-1.806-1.584-2.826-2.303-2.055-1.009 1.076-.537 5.02 1.003 5.711 1.237.3 1.757-1.793 1.3-3.656M171.115 255.096c-.424-1.786-1.554-2.732-2.286-1.917-1.035 1.163-.605 5.108.946 5.69 1.232.211 1.778-1.934 1.34-3.773M176.897 256.832c-.408-1.472-1.537-2.197-2.273-1.462-1.048 1.042-.644 4.32.903 4.706 1.252.1 1.799-1.702 1.37-3.244M182.413 258.012c-.44-1.56-1.638-2.162-2.377-1.188-.866 1.137-.588 4.24 1.007 4.528 1.247.016 1.79-1.825 1.37-3.34M187.894 258.921c-.29-1.539-1.09-2.055-1.585-1.025-.578 1.202-.387 4.29.685 4.464.821-.072 1.182-1.95.9-3.439M194.833 258.813c-.298-1.206-1.1-1.548-1.588-.68-.571 1.017-.372 3.474.694 3.516.826-.134 1.183-1.67.894-2.836M202.357 257.564c-.32-1.255-1.185-1.459-1.653-.39-.496 1.14-.244 3.366.787 3.308.814-.213 1.155-1.782.866-2.918M210.141 256.983c-.33-.915-1.19-.998-1.648-.161-.537.977-.153 2.535.814 2.414.803-.222 1.131-1.425.834-2.253M217.976 254.363c-.334-.85-1.257-.956-1.709.106-.434 1.019-.025 2.402.893 2.212.813-.297 1.126-1.523.816-2.318M226.08 252.473c-.396-.63-1.408-.477-1.772.27-.305.631.059 1.499.996 1.31.863-.26 1.064-1.123.775-1.58M233.9 249.598c-.215-.611-.751-.317-.899.494-.11.626.082 1.38.533 1.13.398-.304.535-1.144.366-1.624M241.748 245.566c-.21-.304-.723-.08-.816.358-.06.284.107.615.5.464.398-.196.455-.625.316-.822M251.51 240.65c-.172-.209-.576.028-.619.361-.024.2.117.398.394.264.291-.17.334-.49.225-.626M261.052 235.781L260.882 236.083 261.136 236.148 261.288 235.844zM271.239 229.55L271.192 229.639 271.274 229.66 271.331 229.552zM137.636 218.986c-1.128-2.641-2.475-4.54-2.747-4.186-.348.46 2.057 6.925 3.398 8.683.157.167.474.517.553.013.098-.614-.283-2.361-1.204-4.51M140.906 223.32c-.76-2.194-1.844-4.014-2.148-3.606-.407.547 1.213 6.187 2.39 7.738.127.135.52.546.544-.405.022-.822-.286-2.285-.786-3.727M145.05 227.778c-.734-2.233-1.835-3.96-2.22-3.483-.524.652.942 6.326 2.208 7.756.636.543.699-.383.68-.984-.024-.87-.274-2.1-.668-3.29M149.51 230.848c-.747-2.39-1.946-4.057-2.336-3.244-.471.985.68 6.305 2.09 7.668.875.61.897-1.173.705-2.444-.042-.29-.176-1.063-.46-1.98M154.205 234.418c-.697-2.109-1.877-3.47-2.34-2.7-.646 1.07.478 5.665 1.89 6.703 1.09.541 1.18-1.796.45-4.003M158.614 237.495c-.676-2.124-1.847-3.39-2.369-2.555-.654 1.047.198 5.692 1.768 6.686 1.12.446 1.29-1.949.6-4.131M164.109 240.573c-.634-1.806-1.806-2.826-2.363-2.061-.706.966.058 4.965 1.66 5.713 1.163.307 1.36-1.788.703-3.652M169.653 241.75c-.611-1.787-1.782-2.742-2.362-1.93-.743 1.038-.048 5.052 1.579 5.691 1.172.222 1.417-1.916.783-3.761M175.45 243.495c-.585-1.475-1.748-2.215-2.344-1.49-.841 1.025-.011 4.306 1.502 4.714 1.191.115 1.458-1.676.841-3.224M181.827 244.157c-.619-1.571-1.835-2.193-2.42-1.236-.743 1.228.09 4.244 1.55 4.545 1.185.04 1.468-1.788.87-3.309M187.352 245.354c-.612-1.564-1.837-2.118-2.428-1.098-.699 1.206-.063 4.26 1.538 4.483 1.175-.037 1.475-1.893.89-3.385M194.848 245.83c-.41-1.234-1.228-1.614-1.621-.756-.464 1.015-.046 3.448 1.016 3.537.79-.096.993-1.609.605-2.781M200.99 244.27c-.431-1.287-1.3-1.54-1.664-.485-.386 1.139.052 3.348 1.073 3.342.802-.167.98-1.698.59-2.858M209.31 244.527c-.428-.94-1.293-1.071-1.652-.247-.43.973.113 2.525 1.08 2.452.79-.185.957-1.358.572-2.205M216.302 242.438c-.467-.96-1.39-.955-1.704.006-.326.993.236 2.405 1.138 2.268.778-.247.963-1.455.566-2.274M224.082 241.908c-.464-.613-1.405-.56-1.705.103-.287.618.206 1.608 1.167 1.452.787-.211.938-1.023.538-1.555M231.952 239.05c-.254-.618-.748-.452-.866.297-.1.635.144 1.503.616 1.292.381-.258.456-1.09.25-1.589M239.807 234.988c-.242-.307-.721-.153-.79.252-.056.345.21.677.573.564.35-.158.404-.576.217-.816M249.256 231.448c-.203-.233-.564-.06-.592.28-.02.246.182.455.444.347.255-.14.294-.462.148-.627M257.948 227.08L257.815 227.386 258.085 227.464 258.208 227.177zM266.459 221.914L266.426 222.016 266.51 222.032 266.559 221.937zM123.219 193.511c-.254-.497-.512-.99-.77-1.483.686 1.322 1.355 2.657 2 4-.184-.395-.618-1.315-1.23-2.517" transform="translate(192 -41) rotate(-148 81.404 209.316)"/>
                <path fill="#00AB96" d="M125.81 198.004c-1.144-2.05-2.447-4.01-2.852-4.395-.014.003-.035.004-.049.005.095.434 4.23 7.95 4.682 8.663.138.204.168.242.256.332l.062-.009c-.01-.42-.854-2.366-2.099-4.596M134.186 206.257c-.884-1.782-2.141-3.748-2.533-3.72-.35.424 2.5 6.424 3.555 7.765.135.146.415.45.415-.005 0-.565-.494-2.135-1.437-4.04M138.348 210.707c-1.064-2.184-2.409-3.974-2.667-3.548-.328.536 2.091 6.247 3.457 7.738.158.142.527.467.512-.244-.019-.791-.542-2.377-1.302-3.946M142.51 215.168c-1.11-2.347-2.577-4.091-2.806-3.336-.288.96 1.91 6.321 3.344 7.667.492.356.698.1.61-.77-.093-.905-.523-2.234-1.148-3.56M146.721 217.887c-1.087-2.073-2.58-3.507-2.904-2.79-.43.961 1.623 5.607 3.199 6.712.987.505.788-.998.544-1.863-.126-.45-.373-1.175-.839-2.059M151.178 220.973c-1.058-2.093-2.56-3.434-2.973-2.662-.565 1.044 1.362 5.706 3.04 6.708 1.138.467 1.067-1.425.25-3.362-.087-.208-.214-.48-.317-.684M156.01 224.327c-.77-1.79-1.912-2.889-2.264-2.178-.499.997.837 4.943 2.173 5.736.994.378.897-1.685.09-3.558M162.097 226.365c-.755-1.805-1.884-2.823-2.282-2.057-.555 1.07.713 5.014 2.084 5.713 1.04.306.977-1.788.198-3.656M166.805 228.08c-.734-1.786-1.871-2.745-2.3-1.938-.606 1.144.603 5.089 2.008 5.694 1.063.23 1.048-1.908.292-3.756M173.14 230.688c-.715-1.486-1.854-2.235-2.303-1.512-.644 1.043.483 4.282 1.937 4.715 1.087.13 1.111-1.654.366-3.203M178.157 231.04c-.756-1.582-1.959-2.224-2.384-1.272-.541 1.213.58 4.227 1.96 4.553 1.086.06 1.143-1.787.424-3.282M186.433 232.86c-.738-1.553-1.944-2.13-2.389-1.138-.518 1.155.431 4.252 1.932 4.509 1.103-.01 1.174-1.864.457-3.37M192.541 233.282c-.73-1.22-1.936-1.626-2.386-.798-.576 1.06.498 3.444 1.898 3.566 1.112-.07 1.196-1.578.488-2.768M198.768 231.465c-.512-1.28-1.366-1.566-1.631-.548-.281 1.086.336 3.34 1.305 3.384.735-.129.796-1.666.326-2.836M206.246 232.254c-.505-.939-1.36-1.102-1.628-.31-.316.928.386 2.525 1.303 2.493.728-.146.787-1.324.325-2.183M213.769 231.033c-.547-.978-1.447-1.02-1.658-.082-.225.97.462 2.408 1.326 2.317.738-.205.8-1.4.332-2.235M221.02 229.646c-.536-.63-1.452-.613-1.653.03-.2.623.402 1.616 1.348 1.498.805-.191.72-1.048.305-1.528M228.093 227.332c-.3-.655-.77-.534-.837.21-.058.622.242 1.506.69 1.343.364-.217.383-1.036.147-1.553M237.016 224.944c-.271-.311-.707-.22-.764.156-.045.316.233.747.64.639.366-.144.319-.575.124-.795M245.097 221.077c-.223-.237-.553-.12-.572.204-.014.255.226.508.49.418.246-.122.25-.444.082-.622M254.327 217.531L254.22 217.818 254.513 217.932 254.598 217.639zM263.384 213.218L263.355 213.308 263.45 213.342 263.484 213.238zM115.354 182.586c-1.67-2.195-3.158-3.882-3.173-3.9 2.142 2.585 4.141 5.255 6 8-.128-.303-1.214-1.98-2.827-4.1M118.705 187.645c-1.373-1.807-2.895-3.532-3.344-3.871-.06.272 5.61 7.64 5.667 7.712.158.178.188.213.283.288.013-.006.036-.011.05-.016-.084-.409-1.172-2.158-2.656-4.113M123.555 190.458c-1.117-1.775-2.429-3.499-2.866-3.769-.019.008-.04.02-.058.029.074.565 3.758 6.554 4.675 7.707.201.227.236.256.319.264.104-.487-1.148-2.767-2.07-4.231M127.69 194.916c-1.107-1.767-2.618-3.71-3.015-3.668-.293.434 3.335 6.434 4.564 7.769.172.16.404.378.419.09.023-.464-.723-2.202-1.969-4.19M131.611 198.26c-1.06-2.141-2.355-3.94-2.52-3.5-.206.552 2.337 6.276 3.59 7.745.141.137.471.454.385-.271-.095-.81-.68-2.41-1.455-3.973M136.859 202.685c-1.144-2.052-2.521-3.555-2.632-2.873-.141.854 2.2 5.545 3.508 6.704.439.305.582.071.423-.696-.13-.62-.536-1.77-1.3-3.135M142.162 205.24c-1.135-2.068-2.54-3.482-2.729-2.747-.248.977 1.984 5.624 3.418 6.707.824.463.532-.874.422-1.295-.198-.771-.606-1.743-1.11-2.665M147.445 207.8c-1.123-2.087-2.534-3.41-2.799-2.624-.352 1.055 1.798 5.71 3.316 6.698.997.451.676-1.299.13-2.684-.182-.462-.4-.93-.647-1.39M152.984 210.9c-1.112-1.79-2.552-2.876-2.86-2.152-.427 1.004 1.608 4.95 3.219 5.73 1.067.331.865-1.307-.025-2.995-.094-.176-.227-.411-.334-.583M158.248 213.477c-1.104-1.806-2.545-2.817-2.908-2.043-.501 1.073 1.47 5.014 3.148 5.71 1.213.294.894-1.816-.24-3.667M164.077 215.221c-1.073-1.487-2.525-2.285-2.934-1.612-.577.946 1.319 4.234 3.049 4.744 1.277.196 1-1.59-.115-3.132M168.946 216.692c-.843-1.573-2.012-2.29-2.274-1.397-.305 1.047.93 4.158 2.282 4.603.978.135.81-1.68-.008-3.206M175.87 218.217c-.84-1.574-1.994-2.223-2.29-1.288-.377 1.196.94 4.218 2.236 4.565.99.074.856-1.77.054-3.277M182.242 218.89c-.825-1.56-1.984-2.152-2.299-1.175-.368 1.139.803 4.238 2.206 4.524 1.011.013.893-1.832.093-3.348M188.352 219.317c-.815-1.23-1.981-1.655-2.309-.844-.379.953.761 3.425 2.171 3.584 1.03-.041.938-1.54.138-2.74M195.382 220.578c-.538-1.21-1.314-1.584-1.542-.737-.285 1.087.555 3.46 1.442 3.542.68-.102.623-1.625.1-2.805M201.802 219.673c-.567-.951-1.39-1.146-1.57-.368-.214.904.597 2.513 1.463 2.519.677-.12.625-1.282.107-2.151M209.86 219.302c-.522-.853-1.38-1.136-1.573-.27-.211.937.597 2.525 1.45 2.473.692-.171.642-1.353.123-2.203M217.117 217.917c-.61-.653-1.473-.67-1.592-.031-.112.59.614 1.606 1.491 1.527.727-.156.567-1.002.101-1.496M225.485 216.171c-.605-.62-1.462-.596-1.585.057-.112.61.606 1.61 1.489 1.483.679-.188.62-1.003.096-1.54M232.851 214.572c-.303-.32-.73-.252-.75.114-.016.315.318.755.707.671.357-.126.262-.555.043-.785M241.472 211.548c-.238-.238-.568-.14-.559.165.006.232.252.53.534.446.255-.112.191-.444.025-.61M249.322 207.665L249.244 207.943 249.551 208.081 249.611 207.792zM258.078 204.735L258.057 204.82 258.16 204.865 258.183 204.762zM107.503 172.562c-.263-.228-.508-.48-.734-.751 1 1.203 1.974 2.42 2.926 3.656.247.315.491.63.74.946.243.305.277.346.334.398-.345-.665-3.121-4.102-3.266-4.249" transform="translate(192 -41) rotate(-148 81.404 209.316)"/>
                <path fill="#00AB96" d="M110.939 176.218c-1.189-1.191-2.346-2.238-3.037-2.822-.215-.095-.42-.195-.619-.306.052.054 5.81 5.966 6.622 6.733.183.163.226.197.33.267l.048-.016c-.153-.393-1.566-2.073-3.344-3.856M125.415 187.417c-1.46-2.05-2.908-3.399-3.03-3.028-.16.501 3.102 5.514 4.577 6.785.155.108.47.334.41-.114-.075-.551-.772-1.98-1.957-3.643M131.25 190.834c-1.456-2.059-3.1-3.537-3.146-2.828-.052.87 2.973 5.56 4.503 6.695.166.097.669.395.436-.511-.202-.785-.905-2.102-1.793-3.356M135.977 193.661c-1.17-2.083-2.503-3.474-2.599-2.705-.125.997 2.21 5.64 3.536 6.695.628.375.477-.501.329-1.058-.215-.806-.688-1.904-1.266-2.932M140.978 195.9c-1.166-1.8-2.512-2.921-2.663-2.221-.202.922 2.08 4.908 3.473 5.731.832.344.483-.927.144-1.732-.166-.396-.466-1.025-.954-1.778M146.239 198.474c-1.146-1.782-2.52-2.855-2.72-2.123-.275 1.015 1.91 4.956 3.407 5.726.94.314.558-1.217-.012-2.403-.24-.5-.5-.928-.675-1.2M152.337 200.528c-1.149-1.803-2.52-2.802-2.763-2.02-.34 1.076 1.792 5.015 3.346 5.703 1.059.28.646-1.629-.404-3.394-.052-.088-.124-.205-.18-.29M158.165 202.281c-1.13-1.486-2.52-2.28-2.801-1.6-.398.95 1.687 4.233 3.282 4.74 1.156.191.694-1.596-.48-3.14M164.262 204.345c-1.195-1.577-2.675-2.295-2.882-1.396-.263 1.146 1.712 4.181 3.27 4.6 1.18.137.765-1.678-.388-3.204M171.38 205.611c-.893-1.577-1.996-2.234-2.184-1.298-.24 1.188 1.216 4.21 2.42 4.566.9.08.618-1.76-.235-3.268M176.916 206.836c-.889-1.58-2-2.19-2.205-1.206-.24 1.156 1.056 4.212 2.388 4.524.92.025.669-1.803-.183-3.318M183.033 207.265c-.882-1.248-2.003-1.695-2.22-.881-.278 1.057 1.105 3.415 2.354 3.589.94-.028.712-1.51-.134-2.708M190.777 208.272c-.872-1.238-1.992-1.636-2.222-.79-.292 1.099 1.076 3.443 2.337 3.551.96-.071.722-1.57-.115-2.76M197.9 207.94c-.612-.97-1.4-1.189-1.506-.417-.125.91.746 2.5 1.57 2.534.64-.098.486-1.236-.065-2.117M204.585 207.251c-.609-.946-1.4-1.118-1.512-.333-.13.921.75 2.519 1.56 2.504.641-.137.506-1.309-.048-2.17M211.842 205.854c-.61-.624-1.397-.703-1.51-.156-.116.575.702 1.684 1.568 1.633.641-.124.492-.909-.058-1.477M219.367 204.654c-.649-.646-1.473-.649-1.518-.01-.041.592.757 1.608 1.584 1.518.627-.158.49-.962-.066-1.508M227.628 202.507c-.314-.312-.721-.296-.736.032-.02.338.402.799.775.739.313-.096.236-.5-.04-.77M235.412 200.01c-.256-.249-.561-.198-.547.096.012.266.31.576.578.515.22-.091.164-.414-.031-.611M243.466 198.332L243.423 198.617 243.736 198.758 243.775 198.49zM252.236 195.405L252.23 195.502 252.328 195.538 252.351 195.45zM109.953 173.486c.103.06.11.06.169.06l.008-.022-.177-.038M122.293 179.349c-1.721-1.722-3.663-2.982-3.645-2.367.022.741 3.783 4.817 5.485 5.744.184.08.752.324.404-.478-.3-.697-1.181-1.833-2.244-2.9M129.265 181.978c-1.467-1.769-3.07-2.927-3.12-2.258-.063.84 2.97 4.876 4.512 5.74.73.302.48-.468.264-.954-.308-.707-.93-1.653-1.656-2.528M134.535 184.56c-1.474-1.783-3.087-2.874-3.193-2.16-.14.935 2.81 4.923 4.466 5.728 1.06.36.216-1.324.116-1.517-.317-.616-.835-1.385-1.389-2.052M140.074 186.888c-1.17-1.782-2.49-2.83-2.61-2.077-.165 1.028 2.112 4.97 3.516 5.716.828.283.418-1.125-.06-2.14-.107-.227-.4-.825-.846-1.5M145.893 188.644c-1.175-1.498-2.484-2.314-2.647-1.65-.216.908 2.019 4.188 3.469 4.744.972.221.4-1.275-.297-2.356-.142-.221-.353-.521-.525-.738M152.837 190.181c-1.245-1.584-2.642-2.335-2.713-1.46-.088 1.005 1.925 4.112 3.45 4.618 1.002.17.517-1.456-.557-2.92l-.18-.238M158.394 191.406c-1.238-1.58-2.655-2.29-2.755-1.381-.127 1.151 1.955 4.181 3.408 4.592 1.088.132.541-1.685-.653-3.211M165.324 192.947c-1.241-1.585-2.648-2.239-2.79-1.297-.175 1.19 1.88 4.207 3.377 4.562 1.106.079.595-1.758-.587-3.265M170.547 193.043c-.915-1.565-1.978-2.17-2.106-1.205-.162 1.231 1.358 4.24 2.505 4.535.85.03.491-1.806-.4-3.33M177.722 195.177c-.912-1.24-1.982-1.687-2.123-.89-.183 1.018 1.319 3.415 2.477 3.601.873-.017.533-1.504-.354-2.711M184.942 195.337c-.9-1.22-1.976-1.63-2.132-.807-.199 1.055 1.297 3.438 2.474 3.571.865-.06.542-1.568-.342-2.764M191.9 195.28c-.946-.964-2.08-1.196-2.16-.445-.097.876 1.319 2.5 2.48 2.555.87-.076.552-1.225-.32-2.11M198.79 194.34c-.635-.948-1.392-1.148-1.45-.376-.064.903.87 2.513 1.636 2.525.598-.116.395-1.275-.187-2.148M206.575 193.79c-.63-.629-1.388-.732-1.444-.196-.06.566.82 1.682 1.638 1.654.65-.111.314-.95-.194-1.458M213.26 193.131c-.65-.626-1.397-.7-1.452-.14-.051.595.814 1.685 1.648 1.619.586-.133.38-.92-.196-1.479M221.241 192.35c-.32-.308-.699-.326-.718-.04-.03.335.437.84.817.794.328-.089.158-.514-.099-.755M228.183 190.379c-.236-.224-.545-.251-.537.028.008.287.365.618.617.57.213-.074.135-.4-.08-.598M236.568 187.302L236.539 187.567 236.869 187.738 236.88 187.461zM244.184 186.285L244.178 186.368 244.289 186.424 244.293 186.327zM126.392 173.54c-.885-.912-1.715-1.519-2.197-1.78-.289.117-.573.231-.86.341.616 1.335 3.146 4.045 4.516 4.62.848.242.375-.72.132-1.145-.35-.612-.93-1.353-1.591-2.037M132.541 175.776c-1.487-1.482-3.081-2.326-3.161-1.672-.108.88 2.816 4.16 4.484 4.75 1.172.258-.024-1.52-.075-1.595-.228-.335-.631-.866-1.248-1.483M138.908 177.585c-1.195-1.494-2.463-2.286-2.56-1.6-.13.93 2.174 4.205 3.55 4.734.875.188.287-1.218-.29-2.147-.208-.333-.441-.666-.7-.987M145.317 178.276c-1.262-1.575-2.604-2.303-2.614-1.412-.009 1.12 2.165 4.15 3.526 4.604.948.155.32-1.473-.548-2.71-.104-.146-.248-.338-.364-.482M151.391 180.351c-1.25-1.57-2.61-2.258-2.646-1.34-.044 1.16 2.103 4.184 3.488 4.582.976.112.445-1.524-.66-3.006-.055-.073-.127-.167-.182-.236M157.791 181.048c-1.26-1.572-2.614-2.21-2.684-1.264-.09 1.193 2.038 4.209 3.468 4.555 1.038.074.428-1.78-.784-3.291M165.551 182.062c-1.246-1.562-2.61-2.161-2.705-1.189-.103 1.125 1.895 4.22 3.444 4.529 1.059.027.476-1.812-.739-3.34M171.911 182.247c-.932-1.241-1.962-1.69-2.045-.891-.102 1.018 1.461 3.415 2.56 3.6.813-.01.399-1.498-.515-2.71M178.284 182.945c-.927-1.228-1.963-1.64-2.056-.822-.12 1.046 1.436 3.434 2.554 3.575.815-.049.406-1.556-.498-2.753M185.247 182.893c-.925-.913-1.971-1.199-2.073-.567-.144.83 1.385 2.585 2.544 2.661.818-.068.423-1.208-.47-2.094M191.84 183.336c-.558-.816-1.308-1.212-1.386-.504-.091.854.917 2.598 1.686 2.633.557-.099.3-1.251-.3-2.13M199.63 182.783c-.653-.635-1.383-.756-1.39-.227-.011.608.968 1.673 1.695 1.667.59-.092.23-.926-.304-1.44M206.313 182.117c-.663-.625-1.377-.714-1.395-.172-.022.57.902 1.68 1.691 1.642.556-.112.3-.903-.296-1.47M213.795 180.48c-.316-.3-.687-.334-.693-.06-.003.323.48.846.843.812.308-.074.114-.503-.15-.752M221.275 179.361c-.266-.24-.545-.238-.527.008.013.255.381.62.642.582.231-.069.09-.403-.115-.59M228.495 178.182L228.485 178.441 228.825 178.624 228.813 178.354zM237.291 175.26L237.289 175.341 237.404 175.4 237.4 175.304zM143.37 167.594c-1.27-1.565-2.593-2.223-2.574-1.279.018 1.178 2.217 4.195 3.55 4.56.87.08.375-1.412-.608-2.797-.11-.151-.256-.345-.369-.484M150.289 169.14c-1.252-1.545-2.589-2.173-2.603-1.22-.02 1.213 2.157 4.227 3.527 4.548.936.048.373-1.623-.74-3.093-.053-.07-.128-.165-.184-.235M156.946 170.46c-1.28-1.262-2.609-1.73-2.635-.93-.038 1.02 2.09 3.385 3.507 3.605 1.002.011.356-1.461-.872-2.675M164.18 170.639c-1.28-1.251-2.621-1.693-2.66-.877-.052 1.048 2.055 3.403 3.481 3.586 1.027-.02.407-1.506-.821-2.71M171.34 171.932c-.954-1.242-1.968-1.658-2.006-.824-.058 1.076 1.524 3.422 2.607 3.566.771-.05.313-1.548-.6-2.742M177.761 171.03c-.942-.922-1.956-1.21-2.013-.575-.071.827 1.492 2.583 2.591 2.66.792-.064.333-1.19-.578-2.084M184.382 171.47c-.624-.9-1.309-1.166-1.35-.525-.058.85.98 2.597 1.723 2.647.525-.088.238-1.24-.373-2.121M192.17 170.919c-.622-.599-1.303-.758-1.347-.315-.062.58.978 1.736 1.725 1.747.529-.078.225-.847-.379-1.432M198.85 170.26c-.66-.626-1.366-.736-1.351-.206.029.614 1.028 1.679 1.73 1.661.52-.097.229-.88-.378-1.455M206.887 169.47c-.328-.308-.685-.353-.673-.084.017.317.518.843.864.823.263-.06.112-.454-.191-.739M213.526 168.88c-.244-.224-.535-.29-.523-.046.01.253.402.662.673.634.204-.057.084-.375-.15-.588M220.214 166.835L220.228 167.103 220.562 167.285 220.548 167.033zM230.078 165.61L230.094 165.704 230.197 165.756 230.201 165.675zM148.613 159.023c-.431-.422-1.093-.98-1.816-1.23-.253.183-.502.365-.753.549.231 1.128 2.291 3.272 3.555 3.45.958-.015.246-1.56-.986-2.77M156.386 160.104c-1.281-1.23-2.593-1.645-2.605-.826-.013 1.032 2.171 3.415 3.538 3.575.973-.04.29-1.568-.933-2.75M162.754 160.328c-.947-.919-1.932-1.214-1.953-.592-.026.791 1.606 2.575 2.645 2.671.736-.046.238-1.184-.692-2.079M169.976 160.518c-.94-.908-1.93-1.19-1.967-.556-.041.804 1.58 2.585 2.638 2.658.744-.064.25-1.211-.671-2.102M176.931 159.6c-.63-.905-1.296-1.169-1.32-.525-.03.848 1.027 2.591 1.749 2.644.505-.085.188-1.237-.429-2.119M183.02 160.11c-.629-.6-1.29-.763-1.314-.32-.03.524.977 1.736 1.746 1.748.553-.078.106-.907-.431-1.429M190.55 158.938c-.644-.607-1.298-.756-1.318-.297-.023.591 1.039 1.744 1.751 1.731.502-.084.186-.86-.432-1.434M198.284 159.518c-.322-.301-.65-.366-.656-.133-.005.3.524.873.872.86.28-.056.054-.475-.216-.727M205.78 158.392c-.246-.226-.54-.3-.52-.062.022.268.446.66.696.644.195-.048.062-.364-.176-.582M213.318 155.809L213.332 156.058 213.679 156.263 213.642 155.999zM220.115 155.327L220.123 155.404 220.238 155.473 220.224 155.38zM161.678 149.155c-.384-.373-.966-.797-1.426-.878-.171.141-.341.288-.51.43.166 1.007 1.729 2.517 2.652 2.57.78-.086.116-1.328-.716-2.122M169.744 148.83c-.954-.903-1.94-1.157-1.946-.507-.018.848 1.59 2.595 2.644 2.637.739-.092.238-1.25-.698-2.13M175.584 148.24c-.636-.605-1.293-.765-1.297-.322-.01.577 1.067 1.735 1.766 1.747.523-.074.08-.905-.47-1.426M182.795 148.437c-.64-.602-1.283-.746-1.3-.295-.02.57 1.067 1.74 1.762 1.736.494-.083.157-.86-.462-1.44M190.853 147.643c-.316-.296-.638-.363-.643-.136-.004.289.535.873.879.865.271-.055.037-.473-.236-.73M196.972 146.202c-.266-.238-.527-.273-.51-.068.02.24.436.656.7.642.208-.045.03-.38-.19-.574M204.199 144.991L204.222 145.241 204.568 145.454 204.527 145.192zM210.999 144.514L211.007 144.591 211.124 144.662 211.11 144.573zM103.017 168.188c.2.186.399.376.597.566 1.15 1.114 2.28 2.253 3.393 3.423l-4-4c0 .002.006.007.01.011M93.309 160.849c-.112-.074-.225-.147-.335-.222.02.012 2.302 1.319 7 5-1.973-1.426-4.553-3.385-6.59-4.729l-.075-.05M81.553 153.475c-1.308-.815-2.639-1.574-3.918-2.443 2.72 1.524 5.388 3.19 8 5-1.394-.783-2.719-1.709-4.082-2.557M82.871 153.872c-.499-.254-1.007-.497-1.496-.772.02.006 2.698 1.078 8.783 4.865l.217.135-2.362-1.42-4.793-2.627-.349-.18M69.739 147.643c-4.781-1.853-4.781-1.853-5.124-2.09-.004-.018-.009-.042-.01-.06.077-.007.101-.007.264.019 3.048 1.046 6.055 2.217 9.012 3.513.1.051.23.123.326.176.377.217.38.226.398.288-.155-.02-.155-.02-4.866-1.846M75.359 151.17c-1.582-.769-3.218-1.402-4.766-2.258.309.008 4.14 1.559 9.579 4.75.141.083.281.165.421.25-.046-.022-.107-.053-.153-.08l-5.018-2.632-.063-.03M57.952 143.881c-3.4-.97-4.953-1.414-5.166-1.662.454-.327 6.184 1.107 9.57 2.678.307.151.367.185.43.255-.173.063-.173.063-4.834-1.27" transform="translate(192 -41) rotate(-148 81.404 209.316)"/>
                <path fill="#00AB96" d="M64.128 145.829c-1.187-.349-1.9-.546-3.194-.904-1.51-.417-1.944-.543-2.106-.628.227-.077 4.384.849 9.522 2.802.159.06.32.12.478.194-.065-.01-.065-.01-.665-.207-.858-.28-2.154-.707-4.035-1.257M39.65 139.622c-2.34-.247-3.313-.415-3.777-.493 2.676.189 5.345.46 8 .815-1.011-.005-2.854-.177-4.222-.322M45.886 141.546c-3.428-.586-4.996-.89-5.237-1.156.4-.523 6.266.329 9.543 1.549.318.13.382.162.457.24-.132.113-.398.111-4.763-.633M52.056 143.444c-5.257-.997-5.257-.997-5.365-1.05.206-.218 5.007.458 9.496 1.787.35.11.41.13.504.173-.164-.004-.164-.004-1.187-.22-.661-.139-1.89-.396-3.448-.69M54.014 143.976c.071.01 1.769.255 5 .983l-.061-.012-4.89-.962-.049-.01" transform="translate(192 -41) rotate(-148 81.404 209.316)"/>
            </g>
        </g>
    </g>
</svg>
