<svg xmlns="http://www.w3.org/2000/svg" width="58" height="60" viewBox="0 0 58 60">
    <g fill="none" fill-rule="evenodd">
        <g fill-rule="nonzero">
            <g>
                <g>
                    <path fill="#D4E1F4" d="M18.105 18.894h-3.646c-4.121.007-7.982 1.978-10.353 5.286-2.724 3.783-2.956 8.552-1.134 12.473v.001l.003.005-.023-.005L.944 49.955c-.545 3.602 1.674 7.054 5.22 8.121 1.308.394 2.7.43 4.026.103-.127-.032-.253-.065-.38-.103-3.546-1.067-5.765-4.52-5.22-8.12l1.401-9.286c.369.322.755.624 1.158.903 2.652 1.845 5.926 2.617 9.143 2.156-1.98-.282-3.865-1.02-5.498-2.156-1.876-1.301-3.325-3.01-4.176-4.919v-.001c-1.823-3.92-1.59-8.69 1.133-12.473 2.372-3.308 6.233-5.279 10.354-5.286z" transform="translate(-336 -909) translate(317 909) translate(19)"/>
                    <path fill="#00AB96" d="M33.399 4.49c-.293-.267-.76-.26-1.044.016l-3.697 3.598c-.277.27-.277.698 0 .968l3.697 3.599c.184.178.454.251.71.19.255-.06.458-.244.53-.483.072-.24.004-.496-.18-.675l-3.2-3.115 3.2-3.115c.284-.276.276-.716-.016-.983zM39.202 4.506c-.283-.276-.75-.283-1.043-.016-.293.267-.3.707-.017.983l3.2 3.115-3.2 3.115c-.284.276-.276.716.017.984.292.267.76.26 1.043-.016L42.9 9.072c.277-.27.277-.698 0-.968l-3.697-3.598zM37.361 2.599c-.406-.098-.818.137-.92.525l-2.793 10.568c-.069.252.01.52.204.702.194.182.476.25.738.178.261-.071.463-.271.528-.524L37.91 3.48c.102-.389-.144-.783-.55-.881z" transform="translate(-336 -909) translate(317 909) translate(19)"/>
                    <g fill="#1664FF">
                        <path d="M26.594 8.683h5.828c1.28 0 2.317-1.024 2.317-2.288 0-1.264-1.037-2.288-2.317-2.288h-5.828c-1.28 0-2.317 1.024-2.317 2.288 0 1.264 1.037 2.288 2.317 2.288zm6.746-2.288c-.002.238-.1.465-.272.63-.173.166-.406.256-.646.25h-2.233v-1.76h2.233c.24-.006.473.084.646.25.172.165.27.393.272.63zm-6.746-.88h2.169v1.76h-2.169c-.492 0-.89-.394-.89-.88s.398-.88.89-.88zM52.362 12.995c0-1.548-1.27-2.803-2.839-2.803-1.568 0-2.839 1.255-2.839 2.803s1.271 2.803 2.84 2.803c1.566-.002 2.836-1.256 2.838-2.803zm-4.251 0c0-.564.344-1.073.872-1.288.528-.216 1.135-.097 1.54.302.403.399.524.999.305 1.52-.218.52-.734.86-1.305.86-.78 0-1.411-.624-1.412-1.394zM34.993 12.995c0 1.134.692 2.156 1.752 2.59 1.061.433 2.282.193 3.094-.608.812-.802 1.055-2.008.615-3.055-.44-1.047-1.475-1.73-2.623-1.73-1.567.002-2.836 1.256-2.838 2.803zM37.83 11.6c.78 0 1.413.625 1.413 1.395s-.633 1.395-1.413 1.395-1.412-.625-1.412-1.395.632-1.394 1.412-1.395zM43.677 21.569c1.568 0 2.839-1.255 2.839-2.803s-1.271-2.802-2.84-2.802c-1.567 0-2.838 1.255-2.838 2.802.002 1.548 1.272 2.802 2.84 2.803zm0-4.197c.78 0 1.413.624 1.413 1.395 0 .77-.633 1.394-1.413 1.394s-1.413-.625-1.413-1.395c.001-.77.634-1.394 1.413-1.394zM46.516 7.224c0-1.548-1.27-2.803-2.839-2.803-1.567 0-2.838 1.255-2.838 2.803s1.27 2.802 2.838 2.802c1.568-.001 2.837-1.255 2.84-2.802zm-2.839 1.394c-.57 0-1.086-.34-1.305-.86-.218-.522-.097-1.122.307-1.52.404-.4 1.011-.519 1.539-.303.528.216.872.725.872 1.289-.001.77-.633 1.393-1.413 1.394zM42.396 12.995c0 .512.312.973.791 1.169.479.195 1.03.087 1.396-.274.367-.362.476-.906.278-1.379-.198-.473-.665-.78-1.184-.78-.707 0-1.28.566-1.28 1.264zm1.426 0c0 .079-.064.143-.145.143-.08 0-.145-.064-.145-.143 0-.08.065-.143.145-.143.08 0 .145.064.145.143zM10.073 15.02h2.05v2.02c-.006.18.063.356.192.484.129.129.305.199.488.194h2.735c.395.015.727-.288.745-.678v-2.02h1.985c.394 0 .749-.286.749-.675v-2.7c-.015-.4-.343-.722-.75-.732h-1.984V8.95c-.013-.402-.34-.724-.746-.736h-2.734c-.394 0-.68.347-.68.736v1.963h-2.05c-.394.016-.7.344-.684.732v2.7c-.005.18.065.355.194.483.13.128.307.197.49.192zm.743-2.7h1.987c.394 0 .746-.286.746-.675V9.622h1.308v2.023c-.006.18.063.356.192.484.129.127.306.197.488.192h2.053v1.29h-2.052c-.19.009-.367.09-.495.228-.127.137-.194.32-.186.506v1.965h-1.308v-1.965c-.013-.401-.34-.722-.746-.734h-1.987v-1.29z" transform="translate(-336 -909) translate(317 909) translate(19) translate(0 18.894)"/>
                        <path d="M5.732 12.995c0 4.601 3.778 8.331 8.438 8.331s8.439-3.73 8.439-8.331c0-4.601-3.778-8.331-8.439-8.331-4.658.005-8.433 3.732-8.438 8.33zm8.438-6.923c3.873 0 7.013 3.1 7.013 6.923s-3.14 6.923-7.013 6.923c-3.873 0-7.012-3.1-7.012-6.923.004-3.822 3.141-6.919 7.012-6.923z" transform="translate(-336 -909) translate(317 909) translate(19) translate(0 18.894)"/>
                        <path d="M57.622 30.884c0-.008-.002-.015-.003-.022l-1.906-12.706c1.767-4.009 1.37-8.626-1.055-12.285C52.233 2.213 48.106.006 43.678 0h-4.456v1.408h4.455c6.466 0 11.707 5.175 11.707 11.558 0 6.384-5.242 11.558-11.707 11.558h-.009c-3.797-.007-7.354-1.831-9.544-4.893-1.168-1.635-3.066-2.61-5.093-2.617h-.265c-2.033.01-3.935.993-5.102 2.637-3.203 4.468-9.143 6.106-14.228 3.923-5.086-2.183-7.923-7.588-6.799-12.948 1.125-5.361 5.904-9.209 11.45-9.218h21.926l.009-1.391L14.081.02C9.634.032 5.494 2.26 3.076 5.945.658 9.629.289 14.27 2.094 18.282L.164 31.155c-.57 3.81 1.705 7.474 5.402 8.7 3.697 1.226 7.753-.34 9.627-3.716l7.296-13.156c.888-.736 1.676-1.583 2.342-2.52.9-1.27 2.367-2.031 3.936-2.04h.263c1.565.008 3.029.763 3.929 2.026.667.935 1.457 1.779 2.349 2.51l7.206 13.268c1.423 2.549 4.136 4.131 7.084 4.132.794 0 1.584-.116 2.344-.346 3.834-1.162 6.17-4.917 5.68-9.13zm-43.68 4.579c-1.541 2.78-4.88 4.069-7.922 3.06-3.043-1.009-4.916-4.026-4.446-7.161L3.234 20.3c2.448 3.534 6.5 5.654 10.837 5.67 2.043-.001 4.058-.467 5.89-1.36l-6.019 10.853zm37.581 3.205c-3.004.901-6.237-.394-7.755-3.107l-5.973-10.993c1.823.903 3.833 1.373 5.872 1.374h.01c3.498.005 6.85-1.378 9.305-3.838.59-.587 1.124-1.228 1.593-1.914l1.63 10.865c.406 3.525-1.518 6.654-4.682 7.613z" transform="translate(-336 -909) translate(317 909) translate(19) translate(0 18.894)"/>
                        <path d="M14.025 4.107c.394 0 .713-.315.713-.704 0-.389-.32-.704-.713-.704h-.595c-.393 0-.713.315-.713.704 0 .389.32.704.713.704h.595zM24.84 3.403c0-.389-.319-.704-.713-.704h-7.844c-.394 0-.713.315-.713.704 0 .389.32.704.713.704h7.844c.394 0 .713-.315.713-.704z" transform="translate(-336 -909) translate(317 909) translate(19) translate(0 18.894)"/>
                    </g>
                    <path fill="#00AB96" d="M44.342 0H27.243c-.824.001-1.614.33-2.196.913-.582.583-.909 1.374-.907 2.197v10.715c-.001.82.326 1.608.907 2.188.582.58 1.371.904 2.193.901h7.799c-.015 2.584 1.113 4.097 2.084 4.954.659.586 1.434 1.027 2.274 1.295.24.067.499 0 .677-.174.18-.175.252-.43.191-.673-.223-.894-.592-3.488.36-4.705.363-.464.9-.697 1.64-.697h2.077c.82.002 1.606-.325 2.184-.906.577-.582.898-1.37.891-2.189V3.11c.008-.82-.313-1.61-.89-2.194C45.95.332 45.164.002 44.342 0zm1.664 13.82c.008.445-.164.874-.477 1.191-.313.317-.741.495-1.187.494h-2.077c-1.187 0-2.112.421-2.75 1.238-.988 1.261-.992 3.218-.85 4.53-.214-.136-.417-.289-.608-.456-1.135-1.002-1.674-2.396-1.601-4.145.029-.601-.428-1.115-1.028-1.158-.019 0-.038-.01-.062-.01H27.24c-.449.004-.88-.173-1.198-.49-.317-.316-.495-.746-.493-1.195V3.11c-.001-.45.176-.882.494-1.2.317-.32.749-.5 1.2-.5h17.098c.448.002.875.183 1.188.502.313.32.484.751.476 1.198v10.71z" transform="translate(-336 -909) translate(317 909) translate(19)"/>
                </g>
            </g>
        </g>
    </g>
</svg>
