<svg xmlns="http://www.w3.org/2000/svg" width="51" height="35" viewBox="0 0 51 35">
    <g fill="none" fill-rule="evenodd">
        <g fill="#1664FF" fill-rule="nonzero">
            <g>
                <g transform="translate(-753 -3136) translate(-2 2814) translate(755.733 322.2)">
                    <path d="M15.2 30.656v-6.57c0-1.813-1.459-3.284-3.258-3.284H8.685v-2.19c0-.604.486-1.095 1.086-1.095h14.114v3.285h-3.257c-1.8 0-3.257 1.47-3.257 3.285v6.569c0 1.814 1.458 3.284 3.257 3.284h8.685c1.799 0 3.257-1.47 3.257-3.284v-6.57c0-1.813-1.458-3.284-3.257-3.284h-3.257v-3.285H40.17c.6 0 1.085.49 1.085 1.095v2.19h-3.257c-1.798 0-3.257 1.47-3.257 3.285v6.569c0 1.814 1.459 3.284 3.257 3.284h8.686c1.798 0 3.257-1.47 3.257-3.284v-6.57c0-1.813-1.459-3.284-3.257-3.284h-3.257v-2.19c0-1.814-1.459-3.284-3.257-3.284H26.056v-2.19h7.6c1.798 0 3.257-1.47 3.257-3.284v-6.57C36.913 1.472 35.454 0 33.656 0H16.285c-1.799 0-3.257 1.47-3.257 3.285v6.569c0 1.814 1.458 3.284 3.257 3.284h7.6v2.19H9.77c-1.799 0-3.257 1.47-3.257 3.284v2.19H3.257C1.458 20.802 0 22.272 0 24.087v6.569c0 1.814 1.458 3.284 3.257 3.284h8.685c1.8 0 3.257-1.47 3.257-3.284zm32.57-6.57v6.57c0 .604-.487 1.094-1.086 1.094h-8.686c-.6 0-1.085-.49-1.085-1.094v-6.57c0-.604.486-1.094 1.085-1.094h8.686c.6 0 1.085.49 1.085 1.095zm-17.371 0v6.57c0 .604-.486 1.094-1.086 1.094h-8.685c-.6 0-1.086-.49-1.086-1.094v-6.57c0-.604.486-1.094 1.086-1.094h8.685c.6 0 1.086.49 1.086 1.095zm-15.2-14.232v-6.57c0-.604.486-1.094 1.086-1.094h17.37c.6 0 1.086.49 1.086 1.095v6.569c0 .604-.486 1.094-1.085 1.094H16.285c-.6 0-1.086-.49-1.086-1.094zm-2.171 20.802c0 .604-.486 1.094-1.086 1.094H3.257c-.6 0-1.086-.49-1.086-1.094v-6.57c0-.604.486-1.094 1.086-1.094h8.685c.6 0 1.086.49 1.086 1.095v6.569z"/>
                    <path d="M20.628 5.474h-2.172c-.6 0-1.085.49-1.085 1.095s.486 1.095 1.085 1.095h2.172c.6 0 1.085-.49 1.085-1.095s-.486-1.095-1.085-1.095zM29.313 7.664h2.171c.6 0 1.086-.49 1.086-1.095s-.486-1.095-1.086-1.095h-2.171c-.6 0-1.086.49-1.086 1.095s.486 1.095 1.086 1.095zM27.142 6.57c0-.606-.486-1.096-1.086-1.096h-2.171c-.6 0-1.086.49-1.086 1.095s.486 1.095 1.086 1.095h2.171c.6 0 1.086-.49 1.086-1.095z"/>
                    <ellipse cx="5.428" cy="27.371" rx="1.086" ry="1.095"/>
                    <ellipse cx="9.771" cy="27.371" rx="1.086" ry="1.095"/>
                    <ellipse cx="22.799" cy="27.371" rx="1.086" ry="1.095"/>
                    <ellipse cx="27.142" cy="27.371" rx="1.086" ry="1.095"/>
                    <ellipse cx="40.17" cy="27.371" rx="1.086" ry="1.095"/>
                    <ellipse cx="44.512" cy="27.371" rx="1.086" ry="1.095"/>
                </g>
            </g>
        </g>
    </g>
</svg>
