<svg xmlns="http://www.w3.org/2000/svg" width="61" height="60" viewBox="0 0 61 60">
    <g fill="none" fill-rule="evenodd">
        <g fill-rule="nonzero">
            <g>
                <g>
                    <path fill="#D4E1F4" d="M9.565 59.13c-2.764.002-5.006-2.127-5.012-4.756v-3.07H.87v3.07c.005 2.63 2.248 4.758 5.012 4.756h3.683zM7.826 20.87L11.304 20.87 11.304 47.826 7.826 47.826z" transform="translate(-1069 -908) translate(995 878) translate(74 30)"/>
                    <g fill="#00AB96">
                        <path d="M11.26 26.917c-.397 0-.719.32-.719.713v.52c0 .394.322.713.719.713.397 0 .719-.32.719-.712v-.521c0-.394-.322-.713-.719-.713zM10.541 25.631c0 .394.322.712.719.712.397 0 .719-.318.719-.712v-3.715c0-.393-.322-.712-.719-.712-.397 0-.719.319-.719.712v3.715zM11.26 15.903c-.397 0-.719.32-.719.713v1.027c0 .394.322.713.719.713.397 0 .719-.32.719-.713v-1.027c0-.394-.322-.713-.719-.713zM10.541 19.901c0 .393.322.712.719.712.397 0 .719-.319.719-.712v-.295c0-.393-.322-.712-.719-.712-.397 0-.719.32-.719.712v.295zM16.051 25.63c-.396 0-.718.319-.718.712v3.8c0 .394.322.712.718.712.397 0 .72-.318.72-.712v-3.8c0-.393-.323-.712-.72-.712zM15.213 24.344c0 .393.322.712.719.712.397 0 .718-.319.718-.712v-1.08c0-.393-.321-.712-.718-.712-.397 0-.719.32-.719.712v1.08zM15.932 18.875c-.397 0-.719.32-.719.713v1.662c0 .393.322.712.719.712.397 0 .718-.319.718-.712v-1.662c0-.394-.321-.713-.718-.713zM20.723 32.08c.397 0 .719-.319.719-.712v-2.513c0-.393-.322-.712-.719-.712-.397 0-.719.319-.719.712v2.513c0 .393.322.712.72.712zM20.004 26.857c0 .393.322.712.72.712.396 0 .718-.319.718-.712v-3.593c0-.393-.322-.712-.719-.712-.397 0-.719.32-.719.712v3.593zM20.723 21.962c.397 0 .719-.319.719-.712v-.437c0-.393-.322-.712-.719-.712-.397 0-.719.319-.719.712v.437c0 .393.322.712.72.712zM6.588 28.143c-.397 0-.718.319-.718.712v1.287c0 .394.321.712.718.712.397 0 .719-.318.719-.712v-1.287c0-.393-.322-.712-.719-.712zM5.75 26.244c0 .393.322.712.719.712.396 0 .718-.319.718-.712v-2.98c0-.393-.322-.712-.718-.712-.397 0-.72.32-.72.712v2.98zM6.469 18.875c-.397 0-.72.32-.72.713v1.662c0 .393.323.712.72.712.396 0 .718-.319.718-.712v-1.662c0-.394-.322-.713-.718-.713zM1.797 32.08c.397 0 .719-.319.719-.712v-4.413c0-.393-.322-.712-.72-.712-.396 0-.718.319-.718.712v4.413c0 .393.322.712.719.712zM1.078 24.957c0 .393.322.712.719.712.397 0 .719-.319.719-.712v-1.693c0-.393-.322-.712-.72-.712-.396 0-.718.32-.718.712v1.693zM1.797 21.962c.397 0 .719-.319.719-.712v-.437c0-.393-.322-.712-.72-.712-.396 0-.718.319-.718.712v.437c0 .393.322.712.719.712zM10.075 3.087h3.019c.86 0 1.557-.691 1.557-1.544C14.65.691 13.954 0 13.094 0h-3.019c-.86 0-1.557.691-1.557 1.543 0 .853.697 1.544 1.557 1.544zm0-1.662h3.019c.066 0 .12.053.12.118 0 .066-.054.12-.12.12h-3.019c-.066 0-.12-.054-.12-.12 0-.065.054-.118.12-.118zM19.976 5.003c0 .694.421 1.319 1.068 1.584.646.265 1.39.119 1.885-.372.494-.49.642-1.227.374-1.868-.267-.64-.898-1.058-1.598-1.058-.954.002-1.728.768-1.729 1.714zm1.73-.289c.16 0 .292.13.292.29 0 .16-.131.289-.292.289-.162 0-.293-.13-.293-.29 0-.16.131-.289.292-.289zM16.146 6.718c.956 0 1.73-.768 1.73-1.715 0-.946-.774-1.714-1.73-1.714-.955 0-1.73.768-1.73 1.714.002.947.776 1.713 1.73 1.715zm0-2.004c.162 0 .292.13.292.29 0 .16-.13.289-.292.289-.161 0-.292-.13-.292-.29 0-.16.131-.289.292-.289zM18.926 6.044c-.7 0-1.33.418-1.597 1.058-.268.64-.12 1.378.374 1.868.495.49 1.239.637 1.885.372.646-.265 1.068-.89 1.068-1.584-.001-.946-.775-1.713-1.73-1.714zm0 2.004c-.16 0-.292-.13-.292-.29 0-.16.131-.29.292-.29.162 0 .292.13.292.29 0 .16-.13.29-.292.29zM18.926 3.963c.7 0 1.33-.418 1.598-1.059.268-.64.12-1.377-.375-1.868-.494-.49-1.238-.636-1.884-.371-.647.265-1.068.89-1.068 1.583.001.947.775 1.714 1.73 1.715zm0-2.004c.162 0 .292.13.292.29 0 .16-.13.289-.292.289-.16 0-.292-.13-.292-.29 0-.16.131-.289.292-.29v.001zM.727 6.648h1.19v1.24c0 .394.353.66.75.66h1.942c.18.01.354-.057.48-.183.127-.126.193-.3.182-.476v-1.24h1.278c.397 0 .758-.29.758-.683V4.041c-.007-.192-.09-.374-.23-.506-.142-.135-.331-.21-.528-.21H5.27V2.117c0-.393-.265-.693-.662-.693H2.667c-.4-.011-.734.298-.75.693v1.206H.727c-.4.002-.723.321-.727.717v1.925c.003.187.082.364.219.493.136.128.32.196.508.19zm.71-1.9h1.23c.187 0 .365-.075.495-.208.13-.134.199-.314.192-.5V2.85h.48v1.19c0 .394.378.709.775.709h1.26v.475H4.61c-.414.01-.751.332-.776.742v1.157h-.479V5.966c.017-.393-.29-.725-.687-.742h-1.23v-.475z" transform="translate(-1069 -908) translate(995 878) translate(74 30) translate(19.13 13.913)"/>
                    </g>
                    <path fill="#1664FF" d="M60.136 50.632h-1.672V21.214c0-3.055-2.465-5.561-5.564-5.561h-8.872v1.423H52.9c2.303 0 4.12 1.868 4.12 4.138v29.418H40.277c-.162 0-.318.053-.445.15l-3.189 2.46H24.226l-3.188-2.46c-.127-.097-.284-.15-.445-.15H3.849V21.214c0-2.27 1.818-4.139 4.12-4.139h8.872v-1.423H7.97c-3.1 0-5.564 2.507-5.564 5.562v29.418H.734c-.407.012-.73.339-.734.74v3.088c.009 3.06 2.527 5.538 5.632 5.54h49.606c3.105-.003 5.623-2.48 5.632-5.54v-3.088c-.004-.401-.328-.728-.734-.74zm-.71 3.828c-.008 2.275-1.88 4.115-4.188 4.117H5.632c-2.308-.002-4.18-1.842-4.188-4.117v-2.405h18.9l3.189 2.46c.127.097.284.15.445.149h12.914c.161 0 .318-.052.445-.15l3.189-2.459h18.9v2.405z" transform="translate(-1069 -908) translate(995 878) translate(74 30)"/>
                    <path fill="#1664FF" d="M8.395 47.275V22.29h8.384v-1.42H7.64c-.186-.001-.364.074-.493.206-.129.133-.197.311-.189.495V47.93c0 .392.285.766.682.766H53.23c.397 0 .681-.374.681-.766V21.57c.008-.183-.06-.361-.189-.494-.128-.132-.306-.207-.492-.206H44.21v1.42h8.265v24.985H8.395z" transform="translate(-1069 -908) translate(995 878) translate(74 30)"/>
                    <path fill="#1664FF" d="M11.304 23.223c0-.34-.389-.614-.87-.614-.48 0-.869.275-.869.614v.511c0 .339.39.614.87.614s.87-.275.87-.614v-.511zM10.435 25.217c-.48 0-.87.326-.87.727v8.112c0 .401.39.727.87.727s.87-.326.87-.727v-8.112c0-.401-.39-.727-.87-.727z" transform="translate(-1069 -908) translate(995 878) translate(74 30)"/>
                    <path fill="#00AB96" d="M17.969 32.801c.424.13.866.195 1.31.195 1.649 0 3.166-.887 3.962-2.314l3.739-6.754c.46-.384.867-.824 1.215-1.31.4-.563 1.052-.899 1.748-.9h.135c.693 0 1.343.333 1.744.893.348.486.758.927 1.22 1.311l3.69 6.807c.797 1.428 2.314 2.314 3.963 2.314.444 0 .886-.065 1.311-.195 2.142-.65 3.448-2.743 3.176-5.09l-.003-.022-.97-6.476c.373-.885.56-1.835.553-2.794-.03-3.856-3.225-7.017-7.123-7.017h-6.683V6.097c0-.522.428-.944.955-.944.527 0 .955.422.955.944v1.507c0 1.271 1.041 2.302 2.326 2.302 1.286 0 2.327-1.03 2.327-2.302V.708c0-.39-.32-.708-.716-.708-.395 0-.716.317-.716.708v6.896c0 .489-.4.885-.895.885-.494 0-.895-.396-.895-.885V6.097c0-1.304-1.068-2.36-2.386-2.36s-2.387 1.056-2.387 2.36v5.352h-7.16c-2.397.013-4.628 1.212-5.944 3.194-1.316 1.982-1.542 4.484-.601 6.665l-.984 6.574c-.339 2.183.997 4.28 3.134 4.92zm25.791-4.869c.187 1.652-.705 3.117-2.174 3.563-1.391.419-2.89-.182-3.594-1.44l-2.623-4.837c.73.244 1.494.369 2.264.37h.006c1.898.002 3.717-.75 5.049-2.088.123-.122.238-.25.352-.379l.72 4.811zm-26.042-12.66c1.065-1.498 2.796-2.395 4.647-2.406H37.64c3.163 0 5.728 2.536 5.728 5.665 0 3.13-2.565 5.666-5.728 5.666h-.005c-1.847-.006-3.577-.897-4.642-2.39-.667-.94-1.753-1.5-2.913-1.505h-.137c-1.16.001-2.249.56-2.917 1.499-1.825 2.534-5.38 3.128-7.946 1.328s-3.174-5.315-1.36-7.857zm.539 9.035c1.2.84 2.634 1.292 4.104 1.29.77 0 1.535-.124 2.265-.365L21.986 30c-.715 1.291-2.263 1.89-3.673 1.422-1.411-.469-2.28-1.87-2.062-3.327l.738-4.925c.375.428.8.81 1.268 1.137z" transform="translate(-1069 -908) translate(995 878) translate(74 30)"/>
                </g>
            </g>
        </g>
    </g>
</svg>
