<svg xmlns="http://www.w3.org/2000/svg" width="53" height="60" viewBox="0 0 53 60">
    <g fill="none" fill-rule="evenodd">
        <g>
            <g>
                <g>
                    <g transform="translate(-583 -908) translate(505 878) translate(58 30) translate(20)">
                        <g fill="#D4E1F4" fill-rule="nonzero">
                            <path d="M19.135 38.938v3.648c0 .62-.272 1.19-.686 1.604-.413.414-.982.66-1.616.66-.93 0-1.784.375-2.405.996-.62.62-.995 1.461-.995 2.406h3.879c0-.932.387-1.785.995-2.406.62-.621 1.474-.996 2.405-.996.62 0 1.202-.26 1.616-.66.414-.414.685-.97.685-1.604v-3.648h-3.878zM3.879 31.305V2.277C3.879 1.022 4.913 0 6.167 0H2.288C1.034 0 0 1.022 0 2.277V36.92c0 1.255 1.034 2.276 2.288 2.276h3.879c-1.254 0-2.288-1.021-2.288-2.276v-5.615z" transform="translate(.697 10.28)"/>
                        </g>
                        <g fill="#1664FF" fill-rule="nonzero">
                            <path d="M37.377 0v1.57h12.539c.816 0 1.529.68 1.529 1.516v28.562H1.555V3.086c0-.824.7-1.517 1.516-1.517h11.016V0H3.071C1.387 0 0 1.386 0 3.086V38.11c0 1.7 1.4 3.086 3.071 3.086h16.107v2.642c0 .824-.686 1.504-1.516 1.504-2.306 0-4.185 1.896-4.185 4.224 0 .432.337.785.764.785H38.06c.428 0 .777-.353.777-.785 0-2.328-1.879-4.224-4.172-4.224-.817 0-1.49-.68-1.49-1.504v-2.642h16.742C51.6 41.195 53 39.81 53 38.11V3.086C53 1.386 51.588 0 49.916 0h-12.54zm-2.713 46.91c1.179 0 2.177.785 2.5 1.87H15.136c.337-1.072 1.348-1.87 2.527-1.87 1.685 0 3.071-1.373 3.071-3.073v-2.642H31.62v2.642c0 1.7 1.36 3.073 3.045 3.073zm15.252-7.284H3.07c-.816 0-1.516-.68-1.516-1.517v-4.891h49.89v4.89c0 .838-.713 1.518-1.53 1.518z" transform="translate(0 8.881)"/>
                            <path d="M26.15 34.46c-1.05 0-1.918.863-1.918 1.936 0 1.072.856 1.935 1.918 1.935 1.063 0 1.918-.863 1.918-1.935 0-1.073-.855-1.936-1.918-1.936zm0 2.289c-.194 0-.363-.157-.363-.366 0-.197.156-.367.363-.367s.363.157.363.367c0 .209-.156.366-.363.366zM4.535 4.446c0-.431-.35-.784-.777-.784-.428 0-.778.353-.778.784v.393c0 .431.35.784.778.784.428 0 .777-.353.777-.784v-.393zM3.758 6.67c-.428 0-.778.353-.778.784v9.416c0 .432.35.785.778.785.428 0 .777-.353.777-.785V7.454c0-.431-.35-.784-.777-.784z" transform="translate(0 8.881)"/>
                        </g>
                        <rect width="22.58" height="15.692" x="14.826" y="1" fill="#FFF" stroke="#00AB96" stroke-width="2" rx="3"/>
                        <g fill="#00AB96" fill-rule="nonzero">
                            <path d="M5.111 1.987c-.302-.277-.785-.27-1.077.016L.214 5.741c-.286.28-.286.724 0 1.004l3.82 3.738c.19.185.468.26.733.198.264-.063.472-.255.547-.503.075-.248.004-.515-.185-.7L1.823 6.243 5.13 3.008c.293-.286.285-.743-.018-1.02zM11.106 2.004c-.293-.287-.775-.294-1.078-.017-.302.278-.31.735-.017 1.021l3.306 3.235-3.306 3.235c-.293.286-.285.744.017 1.021.303.277.785.27 1.078-.017l3.819-3.737c.286-.28.286-.724 0-1.004l-3.819-3.737zM9.205.023c-.42-.102-.845.143-.951.546L5.369 11.544c-.071.261.01.54.21.728.202.189.493.26.763.185.27-.074.478-.282.545-.544L9.772.938c.106-.403-.148-.813-.567-.915z" transform="translate(18.435 2.308)"/>
                        </g>
                        <path fill="#00AB96" fill-rule="nonzero" d="M26.086 27.14c.43 0 .784-.349.784-.776v-.583c0-.427-.353-.777-.784-.777-.43 0-.783.35-.783.777v.583c0 .427.352.777.783.777zM26.086 27.84c-.43 0-.783.35-.783.777v4.196c0 .427.352.777.783.777.43 0 .784-.35.784-.777v-4.196c0-.427-.353-.777-.784-.777zM26.086 36.879c-.43 0-.783.35-.783.777v1.166c0 .427.352.777.783.777.43 0 .784-.35.784-.777v-1.166c0-.44-.353-.777-.784-.777zM26.086 34.315c-.43 0-.783.35-.783.777v.337c0 .427.352.777.783.777.43 0 .784-.35.784-.777v-.337c0-.427-.353-.777-.784-.777zM20.732 28.591c.431 0 .784-.35.784-.777v-4.3c0-.427-.353-.776-.784-.776-.43 0-.783.35-.783.777v4.299c0 .427.352.777.783.777zM20.732 29.303c-.43 0-.783.35-.783.777v1.218c0 .427.352.777.783.777.431 0 .784-.35.784-.777V30.08c0-.427-.353-.777-.784-.777zM20.732 32.8c-.43 0-.783.35-.783.777v1.878c0 .427.352.777.783.777.431 0 .784-.35.784-.777v-1.878c0-.428-.353-.777-.784-.777zM15.378 25.755c.431 0 .784-.35.784-.777v-2.836c0-.427-.353-.777-.784-.777-.43 0-.783.35-.783.777v2.836c0 .427.352.777.783.777zM15.378 26.454c-.43 0-.783.35-.783.777v4.067c0 .427.352.777.783.777.431 0 .784-.35.784-.777V27.23c0-.427-.353-.777-.784-.777zM15.378 32.8c-.43 0-.783.35-.783.777v.492c0 .427.352.777.783.777.431 0 .784-.35.784-.777v-.492c0-.428-.353-.777-.784-.777zM31.44 25.755c.43 0 .783-.35.783-.777v-1.45c0-.428-.352-.777-.783-.777-.431 0-.784.35-.784.777v1.45c0 .427.353.777.784.777zM31.44 27.154c-.431 0-.784.35-.784.777v3.367c0 .427.353.777.784.777.43 0 .783-.35.783-.777V27.93c0-.428-.352-.777-.783-.777zM31.44 32.8c-.431 0-.784.35-.784.777v1.878c0 .427.353.777.784.777.43 0 .783-.35.783-.777v-1.878c0-.428-.352-.777-.783-.777zM36.794 27.905c.43 0 .783-.35.783-.777v-4.986c0-.427-.352-.777-.783-.777-.431 0-.784.35-.784.777v4.986c0 .427.353.777.784.777zM36.794 28.604c-.431 0-.784.35-.784.777v1.917c0 .427.353.777.784.777.43 0 .783-.35.783-.777V29.38c0-.427-.352-.777-.783-.777zM36.794 32.8c-.431 0-.784.35-.784.777v.492c0 .427.353.777.784.777.43 0 .783-.35.783-.777v-.492c0-.428-.352-.777-.783-.777z"/>
                    </g>
                </g>
            </g>
        </g>
    </g>
</svg>
