<svg xmlns="http://www.w3.org/2000/svg" width="233" height="250" viewBox="0 0 233 250">
    <g fill="none" fill-rule="evenodd">
        <g stroke="#929292">
            <g>
                <g>
                    <path stroke-linecap="round" stroke-linejoin="round" d="M231 171.66c-34.802 4.401-59.687-1.704-74.655-18.315-14.55-16.147-18.505-41.14-11.863-74.977h0c2.334-11.89-2.97-23.979-13.301-30.311-9.952-6.1-25.224-9.15-45.817-9.15C68.73 37.818 57.941 24.85 53 0" transform="translate(-1209 -3486) translate(-2 2814) translate(1212 673)"/>
                    <path d="M231 243.694c-48.738 8.226-81.698 4.06-98.88-12.498-15.124-14.575-22.675-39.22-22.653-73.934.01-13.951-2.901-27.75-8.544-40.51C86.276 83.635 63.715 66.092 33.24 64.125 14.146 63.039 3.065 41.664 0 0" transform="translate(-1209 -3486) translate(-2 2814) translate(1212 673)"/>
                </g>
            </g>
        </g>
    </g>
</svg>
