<svg xmlns="http://www.w3.org/2000/svg" width="34" height="34" viewBox="0 0 34 34">
    <g fill="none" fill-rule="evenodd">
        <g fill="#1664FF" fill-rule="nonzero">
            <g>
                <g>
                    <path d="M28.327.766c-.541 0-.98.439-.98.98V3.51C24.392 1.233 20.79 0 17 0 12.46 0 8.19 1.768 4.98 4.98 1.767 8.19 0 12.46 0 17c0 4.541 1.768 8.81 4.98 12.021.19.192.442.287.693.287.25 0 .502-.095.693-.287.383-.383.383-1.004 0-1.387-2.84-2.84-4.404-6.617-4.404-10.634C1.962 8.708 8.708 1.962 17 1.962c3.14 0 6.134.956 8.648 2.73h-1.244c-.541 0-.98.44-.98.98 0 .542.439.982.98.982h3.923c.032 0 .063-.002.093-.005h.001c.027-.003.054-.007.08-.012l.015-.002c.026-.005.05-.012.076-.019l.016-.004c.025-.007.049-.016.072-.025l.019-.007.068-.031.019-.01c.023-.012.046-.026.068-.04l.015-.009c.11-.072.203-.167.276-.276l.01-.015.04-.068.009-.02c.01-.021.022-.044.031-.067l.007-.019c.009-.023.018-.047.025-.071l.004-.016c.007-.026.014-.051.019-.077l.002-.013c.01-.057.016-.115.016-.175V1.747c0-.542-.44-.981-.98-.981zM22.483 32.088c-.153-.52-.698-.816-1.218-.663-.243.072-.49.138-.735.197-.527.127-.852.656-.725 1.183.108.45.51.752.953.752.076 0 .153-.009.23-.027.277-.067.557-.142.832-.223.52-.154.817-.7.663-1.219zM26.2 30.152c-.284-.461-.888-.606-1.35-.323-.215.132-.436.26-.658.382-.475.26-.65.855-.391 1.33.178.327.514.512.862.512.158 0 .32-.039.469-.12.25-.137.5-.282.744-.432.462-.283.607-.887.324-1.349zM33.528 13.006c-.067-.278-.142-.558-.223-.832-.154-.52-.7-.816-1.219-.663-.52.154-.816.7-.662 1.219.071.242.138.49.197.735.108.45.51.752.953.752.076 0 .153-.01.23-.028.527-.127.85-.656.724-1.183zM17.386 32.034c-.252.006-.511.006-.763 0-.542-.011-.992.414-1.005.956-.014.541.414.991.956 1.005.14.003.284.005.426.005.145 0 .292-.002.436-.005.541-.014.97-.464.955-1.006-.013-.541-.464-.968-1.005-.955zM9.813 30.213c-.222-.12-.444-.25-.66-.381-.461-.283-1.065-.139-1.348.323-.284.462-.139 1.066.323 1.349.244.15.495.295.746.432.15.081.31.12.469.12.347 0 .684-.185.862-.512.26-.476.084-1.071-.392-1.33zM13.478 31.624c-.247-.06-.495-.125-.737-.197-.52-.153-1.065.144-1.218.664-.153.52.144 1.065.664 1.218.274.08.554.155.833.222.077.019.154.028.23.028.443 0 .845-.303.953-.753.126-.526-.199-1.056-.725-1.182zM32.808 19.791c-.527-.126-1.057.199-1.183.726-.059.246-.125.493-.196.736-.153.52.144 1.064.664 1.217.092.028.186.04.277.04.424 0 .815-.276.94-.704.082-.274.156-.554.223-.833.126-.526-.199-1.056-.725-1.182zM29.29 27.322c-.393-.373-1.013-.358-1.387.035-.174.184-.355.365-.539.54-.392.373-.407.994-.034 1.386.193.203.452.305.71.305.244 0 .487-.09.677-.27.207-.198.412-.402.609-.61.373-.392.357-1.013-.036-1.386zM31.93 8.863c-.138-.251-.283-.502-.433-.746-.283-.462-.887-.606-1.349-.323-.461.284-.606.888-.322 1.35.132.215.26.437.382.659.178.326.514.51.861.51.16 0 .32-.038.47-.12.475-.26.65-.855.39-1.33zM31.547 23.789c-.476-.26-1.071-.084-1.33.392-.121.222-.25.444-.382.66-.283.463-.138 1.067.324 1.35.16.097.337.144.511.144.33 0 .653-.167.838-.469.15-.244.295-.496.431-.747.26-.476.084-1.071-.392-1.33zM33.994 16.56c-.013-.542-.465-.966-1.005-.956-.541.014-.97.464-.955 1.006.003.129.005.26.005.39 0 .124-.002.25-.005.373-.013.541.415.991.957 1.004h.024c.53 0 .967-.423.98-.957.003-.139.005-.28.005-.42 0-.146-.002-.295-.006-.44z" transform="translate(-478 -3137) translate(-2 2814) translate(480 323)"/>
                    <path d="M28.371 17.534c-1.038-1.782-2.544-3.248-4.342-4.305.43-.32.524-.929.207-1.363-.32-.438-.933-.534-1.37-.215l-.848.617c-.343-.13-.694-.249-1.051-.352l.36-.78c.227-.492.012-1.074-.48-1.301-.491-.227-1.074-.013-1.301.479L19 11.496c-.337-.047-.676-.083-1.02-.107v-1.108c0-.541-.439-.98-.98-.98-.542 0-.981.439-.981.98v1.108c-.343.024-.683.06-1.02.107l-.545-1.182c-.227-.492-.81-.706-1.302-.48-.492.228-.706.81-.48 1.302l.36.78c-.356.103-.707.221-1.051.352l-.847-.617c-.438-.32-1.051-.223-1.37.215-.317.435-.224 1.043.207 1.363-1.799 1.057-3.304 2.523-4.343 4.305-.178.305-.178.682 0 .987C7.85 22.332 12.207 24.7 17 24.7c4.793 0 9.15-2.368 11.372-6.179.178-.305.178-.682 0-.987zM17 22.738c-3.883 0-7.417-1.79-9.368-4.71 1.089-1.63 2.67-2.907 4.53-3.718.046-.016.09-.035.134-.057.74-.312 1.522-.55 2.334-.708.768-.15 1.561-.228 2.37-.228.809 0 1.602.078 2.37.228.812.158 1.594.396 2.333.708.044.022.089.041.135.057 1.86.811 3.441 2.088 4.53 3.717-1.951 2.92-5.485 4.711-9.368 4.711z" transform="translate(-478 -3137) translate(-2 2814) translate(480 323)"/>
                    <path d="M17 14.47c-1.962 0-3.558 1.595-3.558 3.557s1.596 3.558 3.558 3.558c1.962 0 3.558-1.596 3.558-3.558 0-1.962-1.596-3.558-3.558-3.558zm0 5.154c-.88 0-1.596-.716-1.596-1.597 0-.88.716-1.596 1.596-1.596.88 0 1.596.716 1.596 1.596 0 .88-.716 1.597-1.596 1.597z" transform="translate(-478 -3137) translate(-2 2814) translate(480 323)"/>
                </g>
            </g>
        </g>
    </g>
</svg>
