<svg xmlns="http://www.w3.org/2000/svg" width="71" height="60" viewBox="0 0 71 60">
    <g fill="none" fill-rule="evenodd">
        <g fill-rule="nonzero">
            <g>
                <g>
                    <path fill="#1664FF" d="M20.641 60h-3.098c-.583 0-1.054-.39-1.054-.87s.471-.87 1.054-.87h3.098c.583 0 1.054.39 1.054.87s-.471.87-1.054.87z" transform="translate(-819 -917) translate(750 878) translate(69 39)"/>
                    <path fill="#D4E1F4" d="M1.711 20.571L5.133 20.571 5.133 58.286 1.711 58.286z" transform="translate(-819 -917) translate(750 878) translate(69 39)"/>
                    <path fill="#1664FF" d="M66.277 60h-28.68c-.555 0-1.004-.446-1.004-.997 0-.55.45-.997 1.004-.997h28.68c1.109 0 2.008-.892 2.008-1.993V23.118c0-1.101-.9-1.994-2.008-1.994H4.017c-1.11 0-2.009.893-2.009 1.994v32.895c0 1.1.9 1.993 2.009 1.993h6.587c.555 0 1.004.447 1.004.997s-.45.997-1.004.997H4.017C1.798 60 0 58.215 0 56.013V23.118c0-2.202 1.798-3.988 4.017-3.988h62.26c2.218 0 4.016 1.786 4.016 3.988v32.895c0 2.202-1.798 3.987-4.016 3.987z" transform="translate(-819 -917) translate(750 878) translate(69 39)"/>
                    <path fill="#1664FF" d="M31.053 60H27.96c-.584 0-1.057-.39-1.057-.87s.473-.87 1.057-.87h3.094c.583 0 1.056.39 1.056.87s-.473.87-1.056.87z" transform="translate(-819 -917) translate(750 878) translate(69 39)"/>
                    <path fill="#00AB96" d="M61.638 32.174h-4.385c-.945-.001-1.712-.769-1.713-1.716v-4.394c.001-.948.768-1.715 1.713-1.716h4.385c.946 0 1.712.768 1.713 1.716v4.394c-.001.947-.767 1.715-1.713 1.716zm-4.145-1.957h3.905v-3.913h-3.905v3.913zM49.489 32.174h-4.386c-.945-.001-1.711-.769-1.712-1.716v-4.394c.001-.948.767-1.715 1.712-1.716h4.386c.945 0 1.711.768 1.712 1.716v4.394c0 .947-.767 1.715-1.712 1.716zm-4.145-1.957h3.905v-3.913h-3.905v3.913zM37.34 32.174h-4.386c-.945-.001-1.711-.769-1.713-1.716v-4.394c.002-.948.768-1.715 1.713-1.716h4.385c.946 0 1.712.768 1.713 1.716v4.394c-.001.947-.767 1.715-1.713 1.716zm-4.146-1.957H37.1v-3.913h-3.905v3.913zM25.19 32.174h-4.386c-.945-.001-1.71-.769-1.712-1.716v-4.394c.001-.948.767-1.715 1.712-1.716h4.386c.945 0 1.711.768 1.712 1.716v4.394c0 .947-.767 1.715-1.712 1.716zm-4.145-1.957h3.905v-3.913h-3.905v3.913zM13.04 32.174H8.656c-.945-.001-1.711-.769-1.712-1.716v-4.394c0-.948.767-1.715 1.712-1.716h4.386c.945 0 1.71.768 1.712 1.716v4.394c-.001.947-.767 1.715-1.712 1.716zm-4.145-1.957H12.8v-3.913H8.895v3.913zM61.638 43.478h-4.385c-.945 0-1.712-.768-1.713-1.716V37.37c.001-.948.767-1.716 1.713-1.717h4.385c.946.001 1.712.77 1.713 1.717v4.393c-.001.948-.767 1.715-1.713 1.716zm-4.145-1.956h3.905v-3.913h-3.905v3.913zM49.489 43.478h-4.386c-.945 0-1.711-.768-1.712-1.716V37.37c0-.948.767-1.716 1.712-1.717h4.386c.946.001 1.712.77 1.712 1.717v4.393c0 .948-.767 1.715-1.712 1.716zm-4.145-1.956h3.905v-3.913h-3.905v3.913zM37.34 43.478h-4.386c-.945 0-1.711-.768-1.713-1.716V37.37c.001-.948.767-1.716 1.713-1.717h4.385c.946.001 1.712.77 1.713 1.717v4.393c-.001.948-.767 1.715-1.713 1.716zm-4.146-1.956H37.1v-3.913h-3.905v3.913zM25.19 43.478h-4.386c-.945 0-1.71-.768-1.712-1.716V37.37c0-.948.767-1.716 1.712-1.717h4.386c.946.001 1.712.77 1.712 1.717v4.393c0 .948-.767 1.715-1.712 1.716zm-4.145-1.956h3.905v-3.913h-3.905v3.913zM13.04 43.478H8.656c-.945 0-1.711-.768-1.712-1.716V37.37c0-.948.766-1.716 1.712-1.717h4.386c.945.001 1.711.77 1.712 1.717v4.393c-.001.948-.767 1.715-1.712 1.716zm-4.145-1.956H12.8v-3.913H8.895v3.913zM61.638 54.783h-4.385c-.944-.002-1.71-.768-1.713-1.714v-4.394c0-.948.766-1.717 1.713-1.718h4.385c.947 0 1.713.77 1.713 1.718v4.394c-.003.946-.768 1.712-1.713 1.714zm-4.145-1.957h3.905v-3.913h-3.905v3.913z" transform="translate(-819 -917) translate(750 878) translate(69 39)"/>
                    <path fill="#1664FF" d="M49.441 54.783H20.852c-.971-.001-1.758-.768-1.76-1.715v-4.395c0-.947.788-1.715 1.76-1.716h28.59c.971 0 1.759.769 1.76 1.716v4.395c-.002.947-.79 1.714-1.76 1.715zM21.1 52.826h28.095v-3.913H21.1v3.913z" transform="translate(-819 -917) translate(750 878) translate(69 39)"/>
                    <path fill="#00AB96" d="M13.04 54.783H8.655c-.944-.002-1.71-.768-1.712-1.714v-4.394c-.001-.948.766-1.717 1.712-1.718h4.385c.947 0 1.713.77 1.713 1.718v4.394c-.003.946-.768 1.712-1.713 1.714zm-4.145-1.957H12.8v-3.913H8.895v3.913z" transform="translate(-819 -917) translate(750 878) translate(69 39)"/>
                    <path fill="#1664FF" d="M57.174 20H45.229c-.536 0-.97-.426-.97-.951v-3.627c0-1.314 1.086-2.379 2.425-2.379h9.034c1.34 0 2.426 1.065 2.426 2.379v3.627c0 .525-.434.951-.97.951zm-10.975-1.903h10.005v-2.675c0-.263-.218-.476-.486-.476h-9.034c-.268 0-.485.213-.485.476v2.675z" transform="translate(-819 -917) translate(750 878) translate(69 39)"/>
                    <path fill="#1664FF" d="M51.174 15.652c-.55 0-.994-.46-.994-1.026v-1.804c-.003-2.257-1.774-4.086-3.96-4.088h-4.608c-1.527.024-2.948-.803-3.718-2.164-.77-1.361-.77-3.045 0-4.406.77-1.36 2.191-2.188 3.718-2.163h19.877c.549 0 .994.459.994 1.026s-.445 1.026-.994 1.026H41.612c-.812-.017-1.57.42-1.981 1.143-.411.723-.411 1.62 0 2.342.41.723 1.169 1.16 1.98 1.143h4.61c3.283.004 5.943 2.751 5.947 6.14v1.805c0 .567-.445 1.026-.994 1.026z" transform="translate(-819 -917) translate(750 878) translate(69 39)"/>
                </g>
            </g>
        </g>
    </g>
</svg>
